<?xml version="1.0" standalone="no"?>
<!DOCTYPE svg PUBLIC "-//W3C//DTD SVG 1.1//EN" "http://www.w3.org/Graphics/SVG/1.1/DTD/svg11.dtd" >
<svg>
<metadata>
Created by FontForge 20110222 at Wed Jul 10 03:36:14 2013
 By Orthosie Webhosting
Copyright (c) 2002 by . All rights reserved.
</metadata>
<defs>
<font id="HelveticaRoundedLTStdBdCnTrBoldCondensetTr" horiz-adv-x="240" >
  <font-face 
    font-family="HelveticaRoundedLTStdBdCnTrBoldCondensetTr"
    font-weight="700"
    font-stretch="condensed"
    units-per-em="1000"
    panose-1="2 0 5 6 5 0 0 2 0 4"
    ascent="733"
    descent="-267"
    x-height="541"
    cap-height="733"
    bbox="-110 -216 990 965"
    underline-thickness="50"
    underline-position="-50"
    unicode-range="U+000D-FB02"
  />
<missing-glyph horiz-adv-x="500" 
d="M0 700h500v-700h-500v700zM420 650h-340l170 -255zM450 95v510l-170 -255zM420 50l-170 255l-170 -255h340zM50 95l170 255l-170 255v-510z" />
    <glyph glyph-name=".notdef" horiz-adv-x="500" 
d="M0 700h500v-700h-500v700zM420 650h-340l170 -255zM450 95v510l-170 -255zM420 50l-170 255l-170 -255h340zM50 95l170 255l-170 255v-510z" />
    <glyph glyph-name=".null" horiz-adv-x="0" 
 />
    <glyph glyph-name="nonmarkingreturn" unicode="&#xd;" 
 />
    <glyph glyph-name="NULL" horiz-adv-x="0" 
 />
    <glyph glyph-name="NULL" horiz-adv-x="0" 
 />
    <glyph glyph-name="space" unicode=" " 
 />
    <glyph glyph-name="exclam" unicode="!" horiz-adv-x="278" 
d="M72 663q0 32 16 51t51 19t51 -19t16 -51v-154q0 -13 -1 -30t-3 -40l-19 -212q-2 -27 -10.5 -40t-33.5 -13t-33.5 13t-10.5 40l-19 212q-2 23 -3 40t-1 30v154zM63 63q0 32 22 54t54 22t54 -22t22 -54t-22 -54t-54 -22t-54 22t-22 54z" />
    <glyph glyph-name="quotedbl" unicode="&#x22;" horiz-adv-x="426" 
d="M254 674q0 28 17 45.5t40 17.5t40 -17.5t17 -45.5v-151q0 -28 -17 -45.5t-40 -17.5t-40 17.5t-17 45.5v151zM58 674q0 28 17 45.5t40 17.5t40 -17.5t17 -45.5v-151q0 -28 -17 -45.5t-40 -17.5t-40 17.5t-17 45.5v151z" />
    <glyph glyph-name="numbersign" unicode="#" horiz-adv-x="480" 
d="M176 197l-21 -157q-2 -22 -13 -37.5t-41 -15.5q-17 0 -29 12.5t-12 29.5q0 6 1 14t3 19l19 135h-39q-24 0 -34 15.5t-10 32.5t10 32.5t34 15.5h51l16 121h-39q-24 0 -34 15.5t-10 32.5t10 32.5t34 15.5h51l20 157q3 22 14 37.5t40 15.5q18 0 30 -12.5t12 -29.5
q0 -6 -1 -14t-3 -19l-18 -135h86l21 157q2 22 13 37.5t41 15.5q17 0 29 -12.5t12 -29.5q0 -6 -1 -14t-3 -19l-19 -135h39q24 0 34.5 -15.5t10.5 -32.5t-10.5 -32.5t-34.5 -15.5h-51l-16 -121h39q24 0 34 -15.5t10 -32.5t-10 -32.5t-34 -15.5h-51l-20 -157q-3 -22 -14 -37.5
t-40 -15.5q-18 0 -30 12.5t-12 29.5q0 6 1 14t3 19l18 135h-86zM290 414h-86l-15 -121h86z" />
    <glyph glyph-name="dollar" unicode="$" horiz-adv-x="480" 
d="M215 301l-64 41q-54 35 -82 81t-28 109q0 39 11.5 73t34 59t55 40t73.5 16v26q0 12 5.5 19.5t17.5 7.5t17.5 -7.5t5.5 -19.5v-26q34 0 64.5 -11t53 -30.5t35.5 -47.5t13 -62q0 -24 -15 -41t-40 -17q-32 0 -43 17t-16 42q-6 29 -20.5 41.5t-31.5 12.5v-197l58 -34
q57 -33 92 -78.5t35 -116.5q0 -97 -48 -151.5t-137 -59.5v-77q0 -11 -5.5 -18.5t-17.5 -7.5t-17.5 7.5t-5.5 18.5v77q-39 0 -72.5 13.5t-57.5 37.5t-37.5 56.5t-13.5 70.5q0 27 13 47.5t42 20.5q26 0 40.5 -15.5t18.5 -50.5q4 -37 19.5 -59t47.5 -25v218zM215 624
q-30 -5 -45 -26t-15 -53q0 -14 2.5 -24.5t9 -21t18.5 -21.5t30 -26v172zM261 83q29 5 46 32t17 60q0 37 -15.5 61t-47.5 41v-194z" />
    <glyph glyph-name="percent" unicode="%" horiz-adv-x="870" 
d="M44 538q0 42 7 75.5t25 57t47.5 36.5t74.5 13t74.5 -13t47.5 -36.5t25 -57t7 -75.5t-7 -75.5t-25 -57t-47.5 -36.5t-74.5 -13t-74.5 13t-47.5 36.5t-25 57t-7 75.5zM145 527q0 -46 12 -70.5t41 -24.5t41 24.5t12 70.5v33q0 33 -10 58.5t-43 25.5t-43 -25.5t-10 -58.5v-33
zM518 169q0 42 7 75.5t25 57t47.5 36.5t74.5 13t74.5 -13t47.5 -36.5t25 -57t7 -75.5t-7 -75.5t-25 -57t-47.5 -36.5t-74.5 -13t-74.5 13t-47.5 36.5t-25 57t-7 75.5zM619 158q0 -46 12 -70.5t41 -24.5t41 24.5t12 70.5v33q0 33 -10 58.5t-43 25.5t-43 -25.5t-10 -58.5v-33z
M550 719q5 11 15.5 18.5t27.5 7.5q18 0 26.5 -10t8.5 -21q0 -16 -6 -29l-303 -697q-5 -11 -15.5 -18.5t-27.5 -7.5q-18 0 -26.5 10t-8.5 21q0 15 6 29z" />
    <glyph glyph-name="ampersand" unicode="&#x26;" horiz-adv-x="630" 
d="M439 252q6 16 11.5 42t10.5 53q5 29 17.5 40t35.5 11q29 0 41 -18t12 -44q0 -19 -5.5 -44.5t-14.5 -52.5t-20 -53t-22 -45l28 -46q20 -33 20 -54q0 -26 -19 -42t-45 -16q-17 0 -29 8.5t-23 25.5l-18 26q-31 -29 -67.5 -42.5t-84.5 -13.5t-86 15.5t-64.5 43.5t-40 66.5
t-13.5 84.5q0 76 36 131t101 97q-32 52 -44.5 85.5t-12.5 59.5q0 35 12.5 62.5t34 47t51.5 30t66 10.5q39 0 67.5 -11.5t47 -30.5t28 -43.5t9.5 -50.5q0 -52 -28 -99t-80 -82zM255 329q-31 -23 -50.5 -55t-19.5 -62q0 -25 8 -47t21.5 -38t31 -25t37.5 -9q26 0 45 8.5
t40 31.5zM297 494l13 12q23 20 33 36.5t10 42.5q0 21 -13.5 35t-33.5 14q-21 0 -35 -12.5t-14 -31.5q0 -15 2.5 -26t10.5 -24z" />
    <glyph glyph-name="quotesingle" unicode="'" horiz-adv-x="222" 
d="M54 674q0 28 17 45.5t40 17.5t40 -17.5t17 -45.5v-151q0 -28 -17 -45.5t-40 -17.5t-40 17.5t-17 45.5v151z" />
    <glyph glyph-name="parenleft" unicode="(" horiz-adv-x="296" 
d="M51 277q0 107 21 195t50 151t60 97.5t51 34.5q17 0 30 -9t13 -35q0 -13 -15 -42.5t-33.5 -81t-33.5 -127.5t-15 -183t15 -183t33.5 -127.5t33.5 -81t15 -42.5q0 -26 -13 -35t-30 -9q-20 0 -51 34.5t-60 97.5t-50 151t-21 195z" />
    <glyph glyph-name="parenright" unicode=")" horiz-adv-x="296" 
d="M245 277q0 -107 -21 -195t-50 -151t-60 -97.5t-51 -34.5q-17 0 -30 9t-13 35q0 13 15 42.5t33.5 81t33.5 127.5t15 183t-15 183t-33.5 127.5t-33.5 81t-15 42.5q0 26 13 35t30 9q20 0 51 -34.5t60 -97.5t50 -151t21 -195z" />
    <glyph glyph-name="asterisk" unicode="*" horiz-adv-x="370" 
d="M289 640q21 8 33.5 1.5t17.5 -21.5t-1.5 -27t-28.5 -20l-68 -22l42 -58q14 -18 12 -32t-15 -23q-13 -10 -26.5 -7t-27.5 21l-42 58l-42 -58q-14 -18 -27.5 -21t-26.5 7q-13 9 -15 23t12 32l42 58l-68 23q-22 7 -28.5 19t-1.5 27t17.5 21.5t34.5 -1.5l68 -22v72
q0 23 9.5 33t25.5 10t25.5 -10t9.5 -33v-72h1z" />
    <glyph glyph-name="plus" unicode="+" horiz-adv-x="600" 
d="M247 496q0 31 15 50.5t38 19.5t38 -19.5t15 -50.5v-160h160q32 0 51 -15.5t19 -37.5t-19 -37.5t-51 -15.5h-160v-160q0 -31 -15 -50.5t-38 -19.5t-38 19.5t-15 50.5v160h-160q-32 0 -51 15.5t-19 37.5t19 37.5t51 15.5h160v160z" />
    <glyph glyph-name="comma" unicode="," 
d="M40 60q0 32 22.5 55.5t57.5 23.5q21 0 36 -9t24.5 -22.5t14.5 -31t5 -33.5q0 -40 -13 -73.5t-32.5 -57.5t-43 -37t-44.5 -13q-12 0 -19.5 8t-7.5 17q0 11 5.5 17t20.5 11q9 3 20 10t21 16.5t18 21.5t11 25q-7 -1 -11.5 -1h-9.5q-21 0 -35 7.5t-23 18.5t-13 23.5t-4 23.5z
" />
    <glyph glyph-name="hyphen" unicode="-" horiz-adv-x="333" 
d="M101 226q-32 0 -47 17t-15 40t15 40t47 17h131q32 0 47 -17t15 -40t-15 -40t-47 -17h-131z" />
    <glyph glyph-name="period" unicode="." 
d="M44 63q0 32 22 54t54 22t54 -22t22 -54t-22 -54t-54 -22t-54 22t-22 54z" />
    <glyph glyph-name="slash" unicode="/" horiz-adv-x="333" 
d="M232 693q7 18 21.5 31t34.5 13q19 0 33.5 -9.5t14.5 -26.5q0 -20 -6 -35l-229 -639q-7 -18 -21.5 -31t-34.5 -13q-19 0 -33.5 9.5t-14.5 26.5q0 20 6 35z" />
    <glyph glyph-name="zero" unicode="0" horiz-adv-x="480" 
d="M173 214q0 -69 13 -100t54 -31t54 31t13 100v279q0 70 -13 100.5t-54 30.5t-54 -30.5t-13 -100.5v-279zM39 474q0 43 5.5 87t26 79.5t60.5 57.5t109 22t109 -22t60.5 -57.5t26 -79.5t5.5 -87v-242q0 -43 -5.5 -86.5t-26 -79t-60.5 -57.5t-109 -22t-109 22t-60.5 57.5
t-26 79t-5.5 86.5v242z" />
    <glyph glyph-name="one" unicode="1" horiz-adv-x="333" 
d="M43 505q-24 0 -40.5 9t-16.5 32q0 38 42 45q58 10 87 29.5t47 54.5q9 17 15.5 27t13 15.5t15 7t21.5 1.5q17 0 30 -12.5t13 -41.5v-616q0 -32 -20 -50.5t-47 -18.5t-47 18.5t-20 50.5v449h-93z" />
    <glyph glyph-name="two" unicode="2" horiz-adv-x="480" 
d="M95 0q-30 0 -44.5 13.5t-14.5 43.5q0 19 5.5 47.5t20.5 63t41 74t67 80.5l47 47q26 26 43 47t26.5 39t13.5 36t4 38q0 41 -16.5 65.5t-50.5 24.5q-38 0 -52.5 -26.5t-18.5 -71.5q-2 -30 -20 -43.5t-41 -13.5q-19 0 -31 7t-18.5 17.5t-9 23.5t-2.5 26q0 40 13 73.5
t37 57.5t59 37.5t79 13.5q100 0 153 -48t53 -145q0 -50 -21.5 -99t-66.5 -94l-83 -83q-41 -41 -62 -73t-30 -64h197q34 0 53 -12t19 -45t-19 -45t-53 -12h-277z" />
    <glyph glyph-name="three" unicode="3" horiz-adv-x="480" 
d="M33 170q0 36 15 58t46 22q29 0 47 -18.5t20 -56.5q2 -42 19 -67t55 -25q41 0 56.5 35.5t15.5 88.5q0 39 -5.5 63t-16 37.5t-26 18.5t-35.5 7q-41 5 -54.5 15t-13.5 32q0 21 11.5 31t50.5 17q42 7 58.5 30t16.5 82q0 33 -13.5 58.5t-49.5 25.5q-26 0 -42 -15.5t-22 -51.5
q-9 -61 -65 -61q-28 0 -42.5 17.5t-14.5 43.5q0 34 11 64t33.5 52t57.5 34.5t82 12.5q54 0 92 -14t61.5 -39t34.5 -59t11 -73q0 -54 -20 -93.5t-62 -54.5q56 -21 76 -65t20 -114q0 -105 -49.5 -163t-158.5 -58q-64 0 -103 20t-60.5 49t-29 60t-7.5 54z" />
    <glyph glyph-name="four" unicode="4" horiz-adv-x="480" 
d="M255 539h-2l-133 -289h135v289zM255 144h-170q-35 0 -54 12t-19 43q0 28 20 71l195 407q15 31 31.5 40t50.5 9q37 0 52.5 -18.5t15.5 -44.5v-413h23q18 0 36.5 -11.5t18.5 -41.5t-18.5 -41.5t-36.5 -11.5h-23v-84q0 -38 -16.5 -55.5t-44.5 -17.5t-44.5 17.5t-16.5 55.5
v84z" />
    <glyph glyph-name="five" unicode="5" horiz-adv-x="480" 
d="M159 448q20 20 45 29t62 9t69 -11t55.5 -38t37 -72.5t13.5 -114.5q0 -56 -8 -104.5t-30.5 -83.5t-63 -55t-104.5 -20q-65 0 -103.5 20.5t-59 48.5t-27 58t-6.5 50q0 30 13.5 54t48.5 24t49.5 -19t16.5 -46q2 -42 17 -68t51 -26q44 0 58 37.5t14 110.5q0 87 -18 123
t-62 36q-24 0 -35.5 -11t-21.5 -24.5t-23.5 -24.5t-41.5 -11q-30 0 -43 18.5t-13 40.5q0 7 0.5 14.5t1.5 18.5l13 246q1 20 11 35t33 15h243q34 0 53 -12t19 -45t-19 -45t-53 -12h-183z" />
    <glyph glyph-name="six" unicode="6" horiz-adv-x="480" 
d="M36 393q0 76 8.5 136.5t32 103t64 65t103.5 22.5q45 0 78.5 -9.5t55.5 -26t32.5 -38t10.5 -45.5q0 -26 -16 -42t-43 -16q-22 0 -33.5 8t-25.5 34q-14 24 -24 31.5t-32 7.5q-44 0 -60.5 -38t-16.5 -104v-41q23 23 48.5 31.5t56.5 8.5q48 0 80.5 -17.5t52 -47.5t28 -71.5
t8.5 -89.5q0 -53 -8 -101.5t-30 -85.5t-61.5 -59t-101.5 -22q-70 0 -111 24t-62.5 67.5t-27.5 104.5t-6 134v76zM170 233q0 -36 3 -64t10.5 -47t21 -29t35.5 -10q43 0 56.5 39t13.5 111q0 71 -13.5 109t-56.5 38q-22 0 -35.5 -9.5t-21 -28.5t-10.5 -46t-3 -63z" />
    <glyph glyph-name="seven" unicode="7" horiz-adv-x="444" 
d="M73 587q-17 0 -29 6t-19.5 15t-11 19.5t-3.5 18.5q0 9 3.5 19.5t11 20t19.5 15.5t29 6h307q31 0 47.5 -9.5t16.5 -40.5q0 -4 -1 -9t-4.5 -15t-11.5 -26t-22 -43q-24 -47 -48 -109.5t-44.5 -131t-35.5 -138t-21 -129.5q-3 -32 -21.5 -50.5t-51.5 -18.5t-47 20t-14 49
q0 22 6.5 59t19 82t29 96t36.5 103t42.5 101t46.5 90h-229z" />
    <glyph glyph-name="eight" unicode="8" horiz-adv-x="480" 
d="M169 184q0 -20 3 -38t10.5 -32t21.5 -22.5t36 -8.5t36 8.5t21.5 22.5t10.5 32t3 38v53q0 15 -2.5 33t-10.5 33t-22 25t-36 10q-23 0 -36.5 -10t-21.5 -25t-10.5 -33t-2.5 -33v-53zM175 529q0 -18 2.5 -35t9 -30.5t19.5 -21.5t34 -8t34 8t19.5 21.5t9 30.5t2.5 35
q0 17 -2.5 34t-9 30.5t-19.5 22t-34 8.5q-34 0 -49.5 -26t-15.5 -69zM35 200q0 30 4 57.5t14 51.5t28 43.5t45 32.5q-45 23 -62 58.5t-17 85.5q0 90 47 140.5t146 50.5t146 -50.5t47 -140.5q0 -50 -17 -85.5t-62 -58.5q27 -13 45 -32.5t28 -43.5t14 -51.5t4 -57.5
q0 -38 -7.5 -76t-29.5 -68.5t-62 -49.5t-106 -19t-106 19t-62 49.5t-29.5 68.5t-7.5 76z" />
    <glyph glyph-name="nine" unicode="9" horiz-adv-x="480" 
d="M444 314q0 -76 -8.5 -136.5t-32 -103t-64 -65t-103.5 -22.5q-45 0 -78.5 9.5t-55.5 26t-32.5 38t-10.5 45.5q0 26 16 42t43 16q22 0 33.5 -8t25.5 -34q14 -24 24 -31.5t32 -7.5q44 0 60.5 38t16.5 104v41q-23 -23 -48.5 -31.5t-56.5 -8.5q-48 0 -80.5 17.5t-52 47.5
t-28 71.5t-8.5 89.5q0 53 8 101.5t30 85.5t61.5 59t101.5 22q70 0 111 -24t62.5 -67.5t27.5 -104.5t6 -134v-76zM170 474q0 -36 3 -63t10.5 -46t21 -28.5t35.5 -9.5q43 0 56.5 38t13.5 109q0 72 -13.5 111t-56.5 39q-22 0 -35.5 -10t-21 -29t-10.5 -47t-3 -64z" />
    <glyph glyph-name="colon" unicode=":" 
d="M44 465q0 32 22 54t54 22t54 -22t22 -54t-22 -54t-54 -22t-54 22t-22 54zM44 63q0 32 22 54t54 22t54 -22t22 -54t-22 -54t-54 -22t-54 22t-22 54z" />
    <glyph glyph-name="semicolon" unicode=";" 
d="M40 60q0 32 22.5 55.5t57.5 23.5q21 0 36 -9t24.5 -22.5t14.5 -31t5 -33.5q0 -40 -13 -73.5t-32.5 -57.5t-43 -37t-44.5 -13q-12 0 -19.5 8t-7.5 17q0 11 5.5 17t20.5 11q9 3 20 10t21 16.5t18 21.5t11 25q-7 -1 -11.5 -1h-9.5q-21 0 -35 7.5t-23 18.5t-13 23.5t-4 23.5z
M44 465q0 32 22 54t54 22t54 -22t22 -54t-22 -54t-54 -22t-54 22t-22 54z" />
    <glyph glyph-name="less" unicode="&#x3c;" horiz-adv-x="600" 
d="M60 226q-16 8 -26.5 23t-10.5 34t10.5 34t26.5 23l407 187q19 9 31.5 11.5t23.5 2.5q24 0 39.5 -13t15.5 -25q0 -14 -7.5 -29.5t-39.5 -29.5l-367 -161l367 -161q32 -14 39.5 -29.5t7.5 -29.5q0 -12 -15.5 -25t-39.5 -13q-11 0 -23.5 2.5t-31.5 11.5z" />
    <glyph glyph-name="equal" unicode="=" horiz-adv-x="600" 
d="M87 348q-32 0 -51 15.5t-19 37.5t19 37.5t51 15.5h426q32 0 51 -15.5t19 -37.5t-19 -37.5t-51 -15.5h-426zM87 112q-32 0 -51 15.5t-19 37.5t19 37.5t51 15.5h426q32 0 51 -15.5t19 -37.5t-19 -37.5t-51 -15.5h-426z" />
    <glyph glyph-name="greater" unicode="&#x3e;" horiz-adv-x="600" 
d="M437 283l-367 161q-32 14 -39.5 29.5t-7.5 29.5q0 12 15.5 25t39.5 13q11 0 23.5 -2.5t31.5 -11.5l407 -187q16 -8 26.5 -23t10.5 -34t-10.5 -34t-26.5 -23l-407 -187q-19 -9 -31.5 -11.5t-23.5 -2.5q-24 0 -39.5 13t-15.5 25q0 14 7.5 29.5t39.5 29.5z" />
    <glyph glyph-name="question" unicode="?" horiz-adv-x="481" 
d="M237 426q36 42 46.5 72.5t10.5 56.5q0 32 -15.5 54.5t-46.5 22.5q-23 0 -39 -14.5t-20 -40.5q-5 -37 -19 -51.5t-43 -14.5q-27 0 -43.5 16.5t-16.5 44.5q0 34 12 63.5t34.5 51.5t55 34t74.5 12q97 0 146 -46.5t49 -140.5q0 -51 -19 -89.5t-56 -79.5l-29 -32
q-17 -18 -27.5 -32t-17.5 -27t-10.5 -27t-5.5 -33q-2 -22 -16 -37t-41 -15q-24 0 -40.5 16.5t-16.5 46.5q0 35 14 74t44 74zM124 63q0 32 22 54t54 22t54 -22t22 -54t-22 -54t-54 -22t-54 22t-22 54z" />
    <glyph glyph-name="at" unicode="@" horiz-adv-x="800" 
d="M310 337q0 -36 15.5 -60t53.5 -24q27 0 47.5 8.5t34.5 23.5t21 34.5t7 41.5q0 35 -19.5 57.5t-58.5 22.5q-22 0 -40.5 -8.5t-32 -23t-21 -33.5t-7.5 -39zM580 309q-2 -9 -3.5 -21t-1.5 -24q0 -19 20 -19q15 0 31.5 8.5t29.5 27t21.5 48t8.5 70.5q0 61 -20 107.5t-56 77.5
t-86 46.5t-110 15.5q-57 0 -107.5 -22t-88 -61t-59.5 -91.5t-22 -112.5q0 -68 22 -121t60.5 -89.5t91 -55.5t112.5 -19q58 0 95 10t60 21.5t37 21.5t27 10q17 0 28.5 -10t11.5 -26q0 -13 -21 -33t-56 -39t-82.5 -32.5t-99.5 -13.5q-82 0 -155 28t-127.5 77.5t-86 118.5
t-31.5 152q0 81 31 150t84.5 120t125.5 79.5t153 28.5q73 0 138.5 -21.5t115 -61.5t78 -97.5t28.5 -129.5q0 -57 -14 -99.5t-36.5 -74t-50.5 -52t-56 -32.5t-52.5 -17t-39.5 -5q-35 0 -50.5 12t-19.5 31h-2q-19 -20 -47.5 -31.5t-64.5 -11.5q-29 0 -55.5 11.5t-47 34.5
t-33 58.5t-12.5 82.5q0 42 16.5 82t44 70.5t64 49.5t75.5 19q45 0 73 -15.5t53 -47.5l4 18q5 24 19 30.5t27 6.5q19 0 32.5 -11t13.5 -33q0 -9 -4 -28z" />
    <glyph glyph-name="A" unicode="A" horiz-adv-x="519" 
d="M173 180l-27 -130q-7 -34 -22.5 -48.5t-47.5 -14.5q-30 0 -46.5 16t-16.5 42q0 9 2 24.5t6 30.5l128 539q6 27 13.5 45.5t19.5 29t30.5 15t46.5 4.5q25 0 43 -4.5t31 -15t21.5 -29t14.5 -45.5l127 -535q4 -17 7 -32t3 -23q0 -34 -20.5 -48t-45.5 -14q-37 0 -54 18.5
t-27 68.5l-21 106h-165zM317 286l-59 299h-2l-61 -299h122z" />
    <glyph glyph-name="B" unicode="B" horiz-adv-x="519" 
d="M56 648q0 38 17.5 55t54.5 17h180q43 0 73.5 -13.5t49.5 -37.5t27.5 -58.5t8.5 -76.5q0 -54 -20 -94t-55 -54q55 -20 75 -63t20 -100q0 -44 -9.5 -84.5t-31.5 -71t-57.5 -49t-87.5 -18.5h-173q-37 0 -54.5 17t-17.5 55v576zM190 101h80q77 0 77 119q0 22 -3.5 41
t-12.5 33.5t-24.5 23t-38.5 8.5h-78v-225zM190 427h61q82 0 82 99q0 51 -20 72t-52 21h-71v-192z" />
    <glyph glyph-name="C" unicode="C" horiz-adv-x="500" 
d="M40 410q0 95 13.5 158t41.5 100.5t72 53t104 15.5q50 0 87.5 -14t63 -38.5t38.5 -57.5t13 -70q0 -35 -15 -57.5t-53 -22.5q-39 0 -52.5 18t-19.5 63q-10 73 -62 73q-23 0 -40 -7.5t-28.5 -33t-17 -73t-5.5 -128.5v-40q0 -65 2 -113.5t10.5 -81t26 -49t48.5 -16.5
q26 0 45.5 21t21.5 52q1 30 5 51t11.5 34t21 19t34.5 6q35 0 51.5 -21.5t16.5 -57.5q0 -56 -16 -96t-44.5 -65.5t-68.5 -37t-89 -11.5q-79 0 -122.5 29t-64.5 75t-25 101t-4 108v114z" />
    <glyph glyph-name="D" unicode="D" horiz-adv-x="537" 
d="M190 106h62q26 0 46 10t33 36t19.5 70.5t6.5 114.5v58q0 59 -4 100.5t-15.5 68t-31 38.5t-50.5 12h-66v-508zM56 648q0 38 17.5 55t54.5 17h175q103 0 148.5 -76t45.5 -239v-93q0 -162 -52.5 -237t-147.5 -75h-169q-37 0 -54.5 17t-17.5 55v576z" />
    <glyph glyph-name="E" unicode="E" horiz-adv-x="500" 
d="M190 120h206q38 0 54 -17t16 -43t-16 -43t-54 -17h-268q-37 0 -54.5 17t-17.5 55v576q0 38 17.5 55t54.5 17h261q38 0 54 -17t16 -43t-16 -43t-54 -17h-199v-166h186q38 0 54 -17t16 -43t-16 -43t-54 -17h-186v-194z" />
    <glyph glyph-name="F" unicode="F" horiz-adv-x="480" 
d="M190 56q0 -32 -20 -50.5t-47 -18.5t-47 18.5t-20 50.5v592q0 38 17.5 55t54.5 17h248q38 0 54 -17t16 -43t-16 -43t-54 -17h-186v-166h186q38 0 54 -17t16 -43t-16 -43t-54 -17h-186v-258z" />
    <glyph glyph-name="G" unicode="G" horiz-adv-x="519" 
d="M473 42q0 -26 -11.5 -40.5t-40.5 -14.5q-27 0 -40 17t-13 42v19h-2q-44 -78 -134 -78q-59 0 -96.5 25t-58.5 70.5t-29 109.5t-8 141v73q0 91 12.5 154.5t40.5 102.5t71 56.5t105 17.5q54 0 92.5 -15.5t63 -40.5t36.5 -56.5t12 -62.5q0 -37 -15.5 -58.5t-51.5 -21.5
q-35 0 -49 19.5t-18 66.5q-2 23 -19 43t-57 20q-18 0 -33 -7t-26.5 -28t-17.5 -59.5t-6 -100.5v-100q0 -66 3.5 -112t13 -75t27 -42.5t45.5 -13.5q44 0 60 40t16 106v41h-55q-29 0 -41.5 17t-12.5 40q0 30 15.5 43.5t42.5 13.5h112q36 0 51.5 -16t15.5 -50v-286z" />
    <glyph glyph-name="H" unicode="H" horiz-adv-x="556" 
d="M190 328v-272q0 -32 -20 -50.5t-47 -18.5t-47 18.5t-20 50.5v608q0 32 20 50.5t47 18.5t47 -18.5t20 -50.5v-230h176v230q0 32 20 50.5t47 18.5t47 -18.5t20 -50.5v-608q0 -32 -20 -50.5t-47 -18.5t-47 18.5t-20 50.5v272h-176z" />
    <glyph glyph-name="I" unicode="I" horiz-adv-x="258" 
d="M62 664q0 32 20 50.5t47 18.5t47 -18.5t20 -50.5v-608q0 -32 -20 -50.5t-47 -18.5t-47 18.5t-20 50.5v608z" />
    <glyph glyph-name="J" unicode="J" horiz-adv-x="444" 
d="M254 664q0 32 20 50.5t47 18.5t47 -18.5t20 -50.5v-504q0 -88 -47 -132.5t-139 -44.5q-51 0 -85.5 14.5t-55 40t-29 59.5t-8.5 73q0 44 19 64t47 20q38 0 53 -23.5t15 -70.5q0 -71 46 -71q26 0 38 16.5t12 57.5v501z" />
    <glyph glyph-name="K" unicode="K" horiz-adv-x="519" 
d="M56 664q0 32 20 50.5t47 18.5t47 -18.5t20 -50.5v-264h2l160 291q14 24 27.5 33t34.5 9q27 0 47 -16t20 -42q0 -11 -5 -25.5t-13 -26.5l-131 -211l156 -321q6 -12 10 -23.5t4 -22.5q0 -24 -18.5 -41t-52.5 -17q-32 0 -45.5 14t-26.5 40l-114 239l-55 -83v-141
q0 -32 -20 -50.5t-47 -18.5t-47 18.5t-20 50.5v608z" />
    <glyph glyph-name="L" unicode="L" horiz-adv-x="481" 
d="M391 120q38 0 54 -17t16 -43t-16 -43t-54 -17h-263q-37 0 -54.5 17t-17.5 55v592q0 32 20 50.5t47 18.5t47 -18.5t20 -50.5v-544h201z" />
    <glyph glyph-name="M" unicode="M" horiz-adv-x="704" 
d="M58 634q0 24 4.5 42.5t16.5 31t33 19t54 6.5q51 0 79 -23t40 -84l66 -346h2l66 346q12 61 40 84t79 23q33 0 54 -6.5t33 -19t16.5 -31t4.5 -42.5v-578q0 -32 -20 -50.5t-47 -18.5t-47 18.5t-20 50.5v517h-2l-110 -542q-4 -17 -13 -30.5t-35 -13.5t-35 13.5t-13 30.5
l-110 542h-2v-517q0 -32 -20 -50.5t-47 -18.5t-47 18.5t-20 50.5v578z" />
    <glyph glyph-name="N" unicode="N" horiz-adv-x="574" 
d="M56 664q0 32 19.5 50.5t54.5 18.5q31 0 53 -12.5t40 -55.5l159 -394h2v393q0 32 20 50.5t47 18.5t47 -18.5t20 -50.5v-602q0 -36 -20 -55.5t-47 -19.5q-41 0 -62.5 13t-37.5 55l-159 400h-2v-399q0 -32 -20 -50.5t-47 -18.5t-47 18.5t-20 50.5v608z" />
    <glyph glyph-name="O" unicode="O" horiz-adv-x="520" 
d="M40 442q0 99 18.5 157.5t49.5 89t70.5 39.5t81.5 9t81.5 -9t70.5 -39.5t49.5 -89t18.5 -157.5v-152q0 -102 -17 -162.5t-46.5 -92.5t-70 -42t-86.5 -10q-47 0 -87 10t-69.5 42t-46.5 92.5t-17 162.5v152zM180 290q0 -66 5 -105.5t15 -61t25 -28t35 -6.5t35 6.5t25 28
t15 61t5 105.5v152q0 58 -5 95t-15 58t-25 28.5t-35 7.5t-35 -7.5t-25 -28.5t-15 -58t-5 -95v-152z" />
    <glyph glyph-name="P" unicode="P" horiz-adv-x="500" 
d="M56 648q0 38 17.5 55t54.5 17h167q84 0 133 -47.5t49 -155.5q0 -43 -10.5 -81t-31.5 -67t-53 -46t-76 -17h-116v-250q0 -32 -20 -50.5t-47 -18.5t-47 18.5t-20 50.5v592zM190 407h60q45 0 66 28t21 76q0 57 -21 82.5t-59 25.5h-67v-212z" />
    <glyph glyph-name="Q" unicode="Q" horiz-adv-x="520" 
d="M40 442q0 99 18.5 157.5t49.5 89t70.5 39.5t81.5 9t81.5 -9t70.5 -39.5t49.5 -89t18.5 -157.5v-152q0 -78 -10 -131t-29 -88l38 -36q17 -17 23 -29t6 -23q0 -17 -14 -30t-30 -13q-25 0 -61 36l-28 29q-25 -14 -54 -18t-61 -4q-47 0 -87 10t-69.5 42t-46.5 92.5t-17 162.5
v152zM180 290q0 -66 5 -105.5t15 -61t25 -28t35 -6.5q15 0 27 4l-6 6q-11 11 -14.5 19t-3.5 19q0 20 14.5 32.5t32.5 12.5q5 0 10 -1.5t13 -9.5q7 41 7 119v152q0 58 -5 95t-15 58t-25 28.5t-35 7.5t-35 -7.5t-25 -28.5t-15 -58t-5 -95v-152z" />
    <glyph glyph-name="R" unicode="R" horiz-adv-x="519" 
d="M56 648q0 38 17.5 55t54.5 17h184q45 0 76 -14.5t50 -39.5t27.5 -59t8.5 -72q0 -71 -20.5 -107.5t-66.5 -55.5q27 -9 43 -22.5t25 -32t12 -43t3 -55.5v-77q0 -30 4.5 -57.5t4.5 -54.5q0 -16 -15 -29.5t-49 -13.5q-38 0 -59 16.5t-23 51.5l-6 184q-3 75 -79 75h-58v-258
q0 -32 -20 -50.5t-47 -18.5t-47 18.5t-20 50.5v592zM190 415h52q20 0 37 5t29 17t19 31.5t7 48.5q0 54 -19 78t-67 24h-58v-204z" />
    <glyph glyph-name="S" unicode="S" horiz-adv-x="500" 
d="M132 371q-53 37 -72 80t-19 98q0 48 17 83t46 58.5t67.5 35t81.5 11.5q56 0 94 -18t61.5 -45t33.5 -58.5t10 -59.5q0 -34 -18.5 -51t-47.5 -17q-20 0 -32.5 4.5t-19.5 14t-10.5 24t-5.5 33.5q-5 38 -24 52.5t-48 14.5q-31 0 -51 -18.5t-20 -50.5q0 -12 2 -24.5t9.5 -25
t21.5 -27t39 -30.5l99 -65q27 -18 49 -37.5t37 -43.5t23 -54.5t8 -69.5q0 -94 -56 -148t-172 -54q-44 0 -76 11.5t-54 30t-35 41t-20.5 43.5t-10 38.5t-2.5 26.5q0 18 2.5 34.5t10 29t21 20t34.5 7.5q32 0 47.5 -19.5t18.5 -67.5q2 -37 20.5 -63t59.5 -26q40 0 59 24.5
t19 59.5q0 18 -3.5 32.5t-12 26.5t-21.5 23.5t-31 24.5z" />
    <glyph glyph-name="T" unicode="T" horiz-adv-x="520" 
d="M433 720q38 0 54 -17t16 -43t-16 -43t-54 -17h-106v-544q0 -32 -20 -50.5t-47 -18.5t-47 18.5t-20 50.5v544h-106q-38 0 -54 17t-16 43t16 43t54 17h346z" />
    <glyph glyph-name="U" unicode="U" horiz-adv-x="537" 
d="M51 664q0 32 20 50.5t47 18.5t47 -18.5t20 -50.5v-460q0 -60 23 -87.5t61 -27.5t60.5 27.5t22.5 87.5v460q0 32 20 50.5t47 18.5t47 -18.5t20 -50.5v-473q0 -95 -54.5 -151.5t-162.5 -56.5t-163 56.5t-55 151.5v473z" />
    <glyph glyph-name="V" unicode="V" horiz-adv-x="500" 
d="M28 617q-2 11 -5.5 28t-3.5 23q0 26 18.5 45.5t50.5 19.5q31 0 46.5 -13.5t21.5 -45.5l102 -532h2l88 520q5 32 19 51.5t48 19.5q32 0 49 -16t17 -45q0 -12 -2 -25t-5 -29l-119 -559q-5 -23 -13 -37t-20 -22t-29.5 -10.5t-41.5 -2.5q-26 0 -43.5 5.5t-28.5 15t-17 24
t-10 32.5z" />
    <glyph glyph-name="W" unicode="W" horiz-adv-x="759" 
d="M310 42q-6 -35 -25 -45t-61 -10q-48 0 -65.5 15t-22.5 44l-109 576q-3 17 -5 30t-2 22q0 26 18.5 42.5t53.5 16.5q31 0 44.5 -15.5t17.5 -40.5l82 -502h2l81 503q5 27 17 41t44 14t44 -14t17 -41l90 -503h2l72 498q5 35 23 47.5t46 12.5q65 0 65 -62q0 -11 -1.5 -22
t-4.5 -26l-102 -563q-5 -24 -10.5 -38.5t-15.5 -22t-26.5 -10t-42.5 -2.5q-27 0 -43 3t-25 11.5t-14 24t-9 39.5l-66 384h-2z" />
    <glyph glyph-name="X" unicode="X" horiz-adv-x="500" 
d="M173 368l-125 253q-9 19 -12.5 31t-3.5 21q0 27 20.5 43.5t48.5 16.5q24 0 42 -12.5t35 -52.5l71 -178l86 194q12 26 26.5 37.5t35.5 11.5q32 0 51 -15.5t19 -43.5q0 -20 -11 -42l-131 -264l138 -281q5 -10 8.5 -20.5t3.5 -18.5q0 -24 -17.5 -42.5t-51.5 -18.5
q-28 0 -43.5 12.5t-26.5 37.5l-90 205l-93 -213q-18 -42 -62 -42q-29 0 -47.5 16t-18.5 44q0 13 5 27.5t16 37.5z" />
    <glyph glyph-name="Y" unicode="Y" horiz-adv-x="481" 
d="M174 296l-146 329q-7 16 -9.5 27.5t-2.5 19.5q0 32 20 46.5t46 14.5q31 0 45 -13t28 -50l86 -228l91 238q13 34 29.5 43.5t39.5 9.5q29 0 46.5 -17t17.5 -37q0 -19 -10 -41l-147 -335v-247q0 -32 -20 -50.5t-47 -18.5t-47 18.5t-20 50.5v240z" />
    <glyph glyph-name="Z" unicode="Z" horiz-adv-x="519" 
d="M110 600q-38 0 -54 17t-16 43t16 43t54 17h308q34 0 52.5 -14.5t18.5 -44.5t-25 -71l-273 -470h235q38 0 54 -17t16 -43t-16 -43t-54 -17h-333q-35 0 -52.5 20.5t-17.5 42.5q0 14 4 26t18 35l272 476h-207z" />
    <glyph glyph-name="bracketleft" unicode="[" horiz-adv-x="296" 
d="M69 661q0 72 77 72h83q21 0 34.5 -12.5t13.5 -35.5t-13.5 -35.5t-34.5 -12.5h-38v-720h38q21 0 34.5 -12.5t13.5 -35.5t-13.5 -35.5t-34.5 -12.5h-83q-77 0 -77 72v768z" />
    <glyph glyph-name="backslash" unicode="\" horiz-adv-x="333" 
d="M3 666q-6 15 -6 35q0 17 14.5 26.5t33.5 9.5q20 0 34.5 -13t21.5 -31l229 -639q6 -15 6 -35q0 -17 -14.5 -26.5t-33.5 -9.5q-20 0 -34.5 13t-21.5 31z" />
    <glyph glyph-name="bracketright" unicode="]" horiz-adv-x="296" 
d="M105 637h-38q-21 0 -34.5 12.5t-13.5 35.5t13.5 35.5t34.5 12.5h83q77 0 77 -72v-768q0 -72 -77 -72h-83q-21 0 -34.5 12.5t-13.5 35.5t13.5 35.5t34.5 12.5h38v720z" />
    <glyph glyph-name="asciicircum" unicode="^" horiz-adv-x="600" 
d="M234 677q14 26 30 34.5t36 8.5t36 -8.5t30 -34.5l154 -280q13 -25 13 -44q0 -11 -9 -23.5t-38 -12.5q-20 0 -35.5 7.5t-29.5 32.5l-121 223l-121 -223q-14 -25 -29.5 -32.5t-35.5 -7.5q-29 0 -38 12.5t-9 23.5q0 19 13 44z" />
    <glyph glyph-name="underscore" unicode="_" horiz-adv-x="500" 
d="M0 -125q-5 0 -8.5 6.5t-3.5 18.5t3.5 18.5t8.5 6.5h500q5 0 8.5 -6.5t3.5 -18.5t-3.5 -18.5t-8.5 -6.5h-500z" />
    <glyph glyph-name="grave" unicode="`" 
d="M32 678q-10 9 -17.5 20.5t-7.5 25.5q0 20 14 31.5t30 11.5q12 0 20 -2.5t19 -13.5l84 -85q15 -15 15 -33q0 -19 -11 -31.5t-31 -12.5q-11 0 -19.5 4t-16.5 12z" />
    <glyph glyph-name="a" unicode="a" horiz-adv-x="444" 
d="M395 116q0 -26 3.5 -47t3.5 -34q0 -48 -61 -48q-25 0 -44.5 14.5t-19.5 54.5l-2 -1q-17 -37 -47.5 -52.5t-63.5 -15.5q-27 0 -50 8.5t-40 26t-26.5 45t-9.5 65.5q0 62 19.5 99.5t67.5 63.5l109 57q39 20 39 57q0 22 -12 38t-35 16q-32 0 -44 -16t-16 -48
q-2 -18 -18 -28.5t-40 -10.5q-10 0 -21.5 2.5t-21 8.5t-15.5 15.5t-6 23.5q0 35 13.5 62t36.5 45t54 27.5t66 9.5q61 0 97 -12.5t54.5 -34.5t24 -51t5.5 -62v-278zM273 280l-43 -30q-20 -14 -32.5 -25.5t-19.5 -23t-9.5 -24.5t-2.5 -30q0 -31 11.5 -47.5t31.5 -16.5
q30 0 47 29t17 72v96z" />
    <glyph glyph-name="b" unicode="b" horiz-adv-x="463" 
d="M181 220q0 -58 12.5 -95t48.5 -37q34 0 42.5 37t8.5 105v71q0 45 -2.5 74t-8.5 46.5t-16 24.5t-25 7q-11 0 -21.5 -5t-19 -19.5t-14 -40t-5.5 -66.5v-102zM59 660q0 38 16.5 55.5t44.5 17.5t44.5 -17.5t16.5 -55.5v-169h2q17 31 45.5 47t62.5 16q41 0 66.5 -17.5
t39.5 -46.5t19 -67t5 -80v-145q0 -42 -5 -80t-19 -67t-39.5 -46.5t-66.5 -17.5q-35 0 -63 15.5t-45 47.5h-2q0 -27 -17 -45t-44 -18q-28 0 -44.5 17.5t-16.5 55.5v600z" />
    <glyph glyph-name="c" unicode="c" horiz-adv-x="426" 
d="M42 320q0 49 5 91.5t23.5 74t54 50t96.5 18.5q52 0 85 -16t52 -39.5t25.5 -49t6.5 -43.5q0 -36 -17 -52.5t-43 -16.5q-31 0 -46.5 15.5t-15.5 53.5q0 26 -13 39t-33 13q-18 0 -28.5 -9.5t-16 -27t-6.5 -40.5t-1 -50v-120q0 -68 11.5 -98t40.5 -30q17 0 31 11.5t15 43.5
q2 52 17.5 70t44.5 18q27 0 43.5 -18.5t16.5 -52.5q0 -20 -6 -49t-24.5 -55.5t-51.5 -45t-87 -18.5q-61 0 -96.5 18.5t-54 50t-23.5 74t-5 91.5v99z" />
    <glyph glyph-name="d" unicode="d" horiz-adv-x="463" 
d="M170 230q0 -68 8.5 -105t42.5 -37q36 0 48.5 37t12.5 95v102q0 41 -5.5 66.5t-14 40t-19 19.5t-21.5 5q-15 0 -25 -7t-16 -24.5t-8.5 -46.5t-2.5 -74v-71zM42 343q0 42 5 80t19 67t39.5 46.5t66.5 17.5q34 0 62.5 -16t45.5 -47h2v169q0 38 16.5 55.5t44.5 17.5
t44.5 -17.5t16.5 -55.5v-600q0 -38 -16.5 -55.5t-44.5 -17.5q-27 0 -44 18t-17 45h-2q-17 -32 -45 -47.5t-63 -15.5q-41 0 -66.5 17.5t-39.5 46.5t-19 67t-5 80v145z" />
    <glyph glyph-name="e" unicode="e" horiz-adv-x="426" 
d="M272 340v45q0 31 -11.5 52t-41.5 21t-41.5 -21t-11.5 -52v-45h106zM38 327q0 52 5.5 94t25 71.5t56.5 45.5t99 16q95 0 132.5 -53.5t37.5 -159.5q0 -18 -2 -34t-9 -28t-20.5 -18.5t-36.5 -6.5h-160v-55q0 -24 1.5 -45.5t7 -37t16.5 -24.5t30 -9q20 0 33 17t14 39
q2 40 18 52.5t42 12.5q27 0 44.5 -12t17.5 -48q0 -74 -45.5 -115.5t-120.5 -41.5q-62 0 -99 16t-56.5 45.5t-25 71.5t-5.5 94v113z" />
    <glyph glyph-name="f" unicode="f" horiz-adv-x="259" 
d="M67 450h-13q-27 0 -40.5 10t-13.5 35q0 26 13.5 36t40.5 10h13v72q0 69 32.5 94.5t101.5 25.5q30 0 45.5 -12.5t15.5 -41.5q0 -18 -9 -29.5t-28 -12.5q-23 -1 -29.5 -11.5t-6.5 -34.5v-50h19q27 0 40.5 -10t13.5 -36q0 -25 -13.5 -35t-40.5 -10h-19v-390
q0 -38 -16.5 -55.5t-44.5 -17.5t-44.5 17.5t-16.5 55.5v390z" />
    <glyph glyph-name="g" unicode="g" horiz-adv-x="463" 
d="M170 248q0 -45 2.5 -74t8.5 -46.5t16 -24.5t25 -7q11 0 21.5 5t19 19.5t14 40t5.5 66.5v95q0 41 -6 66.5t-14.5 40t-18.5 19.5t-19 5q-26 0 -40 -26.5t-14 -92.5v-86zM42 351q0 39 6 75.5t20.5 65t39.5 45.5t64 17q35 0 66.5 -19t45.5 -54h2q0 38 15.5 55.5t44.5 17.5
q26 0 42 -17.5t16 -55.5v-511q0 -93 -45.5 -135t-137.5 -42q-34 0 -63.5 6t-51 18t-33.5 31t-12 46q0 26 17.5 40t43.5 14q21 0 34.5 -11t19.5 -25q8 -18 19.5 -25.5t22.5 -7.5q40 0 52 26t12 81v75h-2q-11 -19 -21.5 -31t-23.5 -18.5t-28.5 -9t-34.5 -2.5q-41 0 -66.5 17.5
t-39.5 46.5t-19 67t-5 80v140z" />
    <glyph glyph-name="h" unicode="h" horiz-adv-x="463" 
d="M54 660q0 38 16.5 55.5t44.5 17.5t44.5 -17.5t16.5 -55.5v-176h2q15 35 47 52.5t67 17.5q51 0 84 -32.5t33 -101.5v-360q0 -38 -16.5 -55.5t-44.5 -17.5t-44.5 17.5t-16.5 55.5v331q0 30 -13.5 43.5t-33.5 13.5q-29 0 -46.5 -23t-17.5 -74v-291q0 -38 -16.5 -55.5
t-44.5 -17.5t-44.5 17.5t-16.5 55.5v600z" />
    <glyph glyph-name="i" unicode="i" 
d="M59 481q0 38 16.5 55.5t44.5 17.5t44.5 -17.5t16.5 -55.5v-421q0 -38 -16.5 -55.5t-44.5 -17.5t-44.5 17.5t-16.5 55.5v421zM50 667q0 29 20.5 49.5t49.5 20.5t49.5 -20.5t20.5 -49.5t-20.5 -49.5t-49.5 -20.5t-49.5 20.5t-20.5 49.5z" />
    <glyph glyph-name="j" unicode="j" 
d="M59 481q0 38 16.5 55.5t44.5 17.5t44.5 -17.5t16.5 -55.5v-572q0 -61 -33.5 -88.5t-90.5 -27.5q-35 0 -46 15.5t-11 36.5q0 26 11 34.5t30 13.5q18 4 18 43v545zM50 667q0 29 20.5 49.5t49.5 20.5t49.5 -20.5t20.5 -49.5t-20.5 -49.5t-49.5 -20.5t-49.5 20.5t-20.5 49.5z
" />
    <glyph glyph-name="k" unicode="k" horiz-adv-x="444" 
d="M54 660q0 38 16.5 55.5t44.5 17.5t44.5 -17.5t16.5 -55.5v-323h2l106 166q13 20 29.5 35.5t36.5 15.5q10 0 20.5 -3t19.5 -9.5t14.5 -16.5t5.5 -23q0 -11 -3.5 -20t-12.5 -22l-92 -132l111 -256q7 -15 7 -35q0 -23 -17.5 -36.5t-42.5 -13.5t-40.5 10.5t-26.5 36.5
l-78 184l-39 -50v-108q0 -38 -16.5 -55.5t-44.5 -17.5t-44.5 17.5t-16.5 55.5v600z" />
    <glyph glyph-name="l" unicode="l" 
d="M59 660q0 38 16.5 55.5t44.5 17.5t44.5 -17.5t16.5 -55.5v-600q0 -38 -16.5 -55.5t-44.5 -17.5t-44.5 17.5t-16.5 55.5v600z" />
    <glyph glyph-name="m" unicode="m" horiz-adv-x="686" 
d="M636 60q0 -38 -16.5 -55.5t-44.5 -17.5t-44.5 17.5t-16.5 55.5v331q0 30 -13.5 43.5t-33.5 13.5q-29 0 -46 -23t-17 -74v-291q0 -38 -16.5 -55.5t-44.5 -17.5t-44.5 17.5t-16.5 55.5v331q0 30 -13.5 43.5t-33.5 13.5q-29 0 -46 -23t-17 -74v-291q0 -38 -16.5 -55.5
t-44.5 -17.5t-44.5 17.5t-16.5 55.5v421q0 38 16.5 55.5t44.5 17.5t44.5 -17.5t16.5 -52.5h2q15 35 47 52.5t67 17.5q41 0 66 -13.5t43 -47.5q27 34 55 47.5t67 13.5q51 0 84 -32.5t33 -101.5v-360z" />
    <glyph glyph-name="n" unicode="n" horiz-adv-x="463" 
d="M54 481q0 38 16.5 55.5t44.5 17.5t44.5 -17.5t16.5 -52.5h2q15 35 47 52.5t67 17.5q51 0 84 -32.5t33 -101.5v-360q0 -38 -16.5 -55.5t-44.5 -17.5t-44.5 17.5t-16.5 55.5v331q0 30 -13.5 43.5t-33.5 13.5q-29 0 -46.5 -23t-17.5 -74v-291q0 -38 -16.5 -55.5t-44.5 -17.5
t-44.5 17.5t-16.5 55.5v421z" />
    <glyph glyph-name="o" unicode="o" horiz-adv-x="444" 
d="M166 207q0 -38 3 -62t10 -37.5t17.5 -19t25.5 -5.5t25.5 5.5t17.5 19t10 37.5t3 62v129q0 37 -3.5 60.5t-11 37t-18 19t-23.5 5.5q-14 0 -24 -5.5t-17.5 -19t-11 -37t-3.5 -60.5v-129zM38 344q0 43 8 81.5t29 67t56.5 45t90.5 16.5t90.5 -16.5t56.5 -45t29 -67t8 -81.5
v-147q0 -44 -8 -82t-29 -66.5t-56.5 -45t-90.5 -16.5t-90.5 16.5t-56.5 45t-29 66.5t-8 82v147z" />
    <glyph glyph-name="p" unicode="p" horiz-adv-x="463" 
d="M181 215q0 -58 12.5 -95t48.5 -37q34 0 42.5 37t8.5 105v76q0 45 -2.5 74t-8.5 46.5t-16 24.5t-25 7q-11 0 -21.5 -5t-19 -19.5t-14 -40t-5.5 -66.5v-107zM59 481q0 38 16.5 55.5t44.5 17.5t44.5 -17.5t16.5 -55.5h2q16 35 46 54t62 19q41 0 66.5 -17.5t39.5 -46.5
t19 -67t5 -80v-145q0 -42 -5 -80t-19 -67t-39.5 -46.5t-66.5 -17.5q-35 0 -63 15t-45 46h-2v-182q0 -38 -16.5 -55.5t-44.5 -17.5t-44.5 17.5t-16.5 55.5v615z" />
    <glyph glyph-name="q" unicode="q" horiz-adv-x="463" 
d="M282 322q0 41 -5.5 66.5t-14 40t-19 19.5t-21.5 5q-15 0 -25 -7t-16 -24.5t-8.5 -46.5t-2.5 -74v-76q0 -68 8.5 -105t42.5 -37q36 0 48.5 37t12.5 95v107zM404 -134q0 -38 -16.5 -55.5t-44.5 -17.5t-44.5 17.5t-16.5 55.5v182h-2q-17 -31 -45 -46t-63 -15
q-41 0 -66.5 17.5t-39.5 46.5t-19 67t-5 80v145q0 42 5 80t19 67t39.5 46.5t66.5 17.5q32 0 62 -19t46 -54h2q0 38 16.5 55.5t44.5 17.5t44.5 -17.5t16.5 -55.5v-615z" />
    <glyph glyph-name="r" unicode="r" horiz-adv-x="333" 
d="M54 488q0 30 13.5 48t43.5 18t43.5 -18t13.5 -48v-51h2q14 51 36.5 84t54.5 33q25 0 42.5 -18.5t17.5 -60.5q0 -28 -16.5 -50.5t-59.5 -22.5q-29 0 -49 -19t-20 -55v-268q0 -38 -16.5 -55.5t-44.5 -17.5t-44.5 17.5t-16.5 55.5v428z" />
    <glyph glyph-name="s" unicode="s" horiz-adv-x="405" 
d="M118 265q-26 19 -42 36t-25 33.5t-12 34.5t-3 39q0 73 46.5 109.5t120.5 36.5q49 0 80.5 -14.5t50 -35.5t26 -44t7.5 -39q0 -27 -13.5 -43.5t-50.5 -16.5q-47 0 -50 47q-2 28 -16 41.5t-37 13.5q-19 0 -30.5 -11t-11.5 -31q0 -14 6 -27.5t21 -24.5l75 -57
q28 -21 50 -39.5t36.5 -37.5t22 -40.5t7.5 -48.5q0 -40 -13.5 -69.5t-37.5 -49.5t-56.5 -30t-69.5 -10q-49 0 -81.5 14.5t-51.5 36.5t-27 48t-8 50q0 35 18 48t40 13q34 0 47.5 -18.5t16.5 -56.5q2 -17 13 -30.5t40 -13.5q48 0 48 50q0 20 -9 34t-34 34z" />
    <glyph glyph-name="t" unicode="t" horiz-adv-x="259" 
d="M67 450h-13q-27 0 -40.5 10t-13.5 35q0 26 13.5 36t40.5 10h13v93q0 38 16.5 55.5t44.5 17.5t44.5 -17.5t16.5 -55.5v-93h28q27 0 40.5 -10t13.5 -36q0 -25 -13.5 -35t-40.5 -10h-28v-318q0 -17 6 -26.5t27 -11.5q21 -1 33 -10t12 -33q0 -31 -19 -44t-58 -13
q-35 0 -59 8.5t-38 22.5t-20 32t-6 37v356z" />
    <glyph glyph-name="u" unicode="u" horiz-adv-x="463" 
d="M54 481q0 38 16.5 55.5t44.5 17.5t44.5 -17.5t16.5 -55.5v-331q0 -30 12 -43.5t35 -13.5q32 0 48 23t16 74v291q0 38 16.5 55.5t44.5 17.5t44.5 -17.5t16.5 -55.5v-421q0 -38 -16.5 -55.5t-44.5 -17.5t-44.5 17.5t-16.5 52.5h-2q-15 -35 -47 -52.5t-67 -17.5
q-51 0 -84 32.5t-33 101.5v360z" />
    <glyph glyph-name="v" unicode="v" horiz-adv-x="426" 
d="M27 470q-2 9 -3.5 15t-1.5 13q0 27 19 41.5t43 14.5q31 0 47 -14.5t22 -49.5l64 -355h2l61 355q5 30 18.5 47t45.5 17t46 -16.5t14 -35.5q0 -20 -6 -42l-98 -418q-7 -26 -24 -40.5t-62 -14.5q-24 0 -40 4.5t-25.5 14.5t-15.5 24t-10 34z" />
    <glyph glyph-name="w" unicode="w" horiz-adv-x="648" 
d="M30 456q-4 17 -4 36q0 30 17 46t45 16q32 0 46.5 -20t19.5 -52l50 -335h2l51 307q8 51 21 75.5t45 24.5q18 0 34.5 -12t22.5 -44l68 -351h2l50 341q10 66 65 66q24 0 40.5 -16t16.5 -45q0 -13 -4 -32l-82 -398q-4 -19 -9 -33.5t-14 -24t-23 -14t-36 -4.5q-45 0 -62 23
t-25 68l-43 225h-2l-46 -249q-6 -32 -25.5 -49.5t-55.5 -17.5q-38 0 -56 19t-27 63z" />
    <glyph glyph-name="x" unicode="x" horiz-adv-x="407" 
d="M133 274l-86 161q-20 39 -20 62q0 29 19.5 43t42.5 14q26 0 38.5 -10.5t25.5 -38.5l53 -111l57 119q10 20 23.5 30.5t33.5 10.5q29 0 45.5 -16t16.5 -41q0 -11 -4.5 -23.5t-17.5 -36.5l-87 -158l94 -174q13 -24 17 -37t4 -24q0 -24 -19 -40.5t-47 -16.5q-42 0 -59 39
l-61 134l-67 -135q-11 -21 -22.5 -29.5t-28.5 -8.5q-28 0 -46.5 15t-18.5 41q0 13 4 24t12 25z" />
    <glyph glyph-name="y" unicode="y" horiz-adv-x="426" 
d="M24 465q-2 8 -3.5 17t-1.5 15q0 26 17.5 41.5t47.5 15.5q23 0 40.5 -10.5t22.5 -36.5l71 -377h2l60 357q5 30 19 48.5t47 18.5q26 0 43.5 -14t17.5 -40q0 -11 -7 -39l-127 -535q-9 -40 -20 -65.5t-27.5 -40.5t-41.5 -21t-64 -6q-17 0 -28 4.5t-17.5 12t-9 17t-2.5 19.5
q0 19 9.5 31t38.5 15q16 1 27.5 6t11.5 28q0 15 -4 30z" />
    <glyph glyph-name="z" unicode="z" horiz-adv-x="426" 
d="M334 541q63 0 63 -42q0 -16 -4.5 -28t-17.5 -35l-193 -330h157q61 0 61 -52q0 -54 -61 -54h-254q-32 0 -45.5 13t-13.5 38q0 17 5 29.5t12 24.5l193 330h-147q-61 0 -61 52q0 54 61 54h245z" />
    <glyph glyph-name="braceleft" unicode="{" horiz-adv-x="314" 
d="M87 162q0 23 -3.5 36.5t-9.5 20t-13.5 8.5t-15.5 2q-21 0 -31 15.5t-10 32.5t10 32.5t31 15.5q8 0 15.5 2t13.5 8.5t9.5 20t3.5 36.5v208q0 70 30 101.5t88 31.5h65q17 0 28.5 -11.5t11.5 -36.5t-11.5 -36.5t-28.5 -11.5h-22q-18 0 -28.5 -14t-10.5 -45v-197
q0 -35 -10.5 -55t-25.5 -30.5t-31 -13.5t-28 -4v-2q12 -1 28 -4t31 -13.5t25.5 -30.5t10.5 -55v-197q0 -31 10.5 -45t28.5 -14h22q17 0 28.5 -11.5t11.5 -36.5t-11.5 -36.5t-28.5 -11.5h-65q-58 0 -88 31.5t-30 101.5v208z" />
    <glyph glyph-name="bar" unicode="|" horiz-adv-x="222" 
d="M54 664q0 38 16 55.5t41 17.5t41 -17.5t16 -55.5v-608q0 -38 -16 -55.5t-41 -17.5t-41 17.5t-16 55.5v608z" />
    <glyph glyph-name="braceright" unicode="}" horiz-adv-x="314" 
d="M227 392q0 -23 3.5 -36.5t9.5 -20t13.5 -8.5t15.5 -2q21 0 31 -15.5t10 -32.5t-10 -32.5t-31 -15.5q-8 0 -15.5 -2t-13.5 -8.5t-9.5 -20t-3.5 -36.5v-208q0 -70 -30 -101.5t-88 -31.5h-65q-17 0 -28.5 11.5t-11.5 36.5t11.5 36.5t28.5 11.5h22q18 0 28.5 14t10.5 45v197
q0 35 10.5 55t25.5 30.5t31 13.5t28 4v2q-12 1 -28 4t-31 13.5t-25.5 30.5t-10.5 55v197q0 31 -10.5 45t-28.5 14h-22q-17 0 -28.5 11.5t-11.5 36.5t11.5 36.5t28.5 11.5h65q58 0 88 -31.5t30 -101.5v-208z" />
    <glyph glyph-name="asciitilde" unicode="~" horiz-adv-x="600" 
d="M41 253q0 20 10 39.5t28.5 35.5t44.5 25.5t58 9.5t63.5 -8t60.5 -19t54.5 -19t44.5 -8q21 0 35 7.5t25.5 16t23 16t27.5 7.5q24 0 33.5 -12.5t9.5 -30.5q0 -20 -10 -39.5t-29 -35.5t-46.5 -25.5t-61.5 -9.5q-29 0 -59.5 8.5t-59.5 18.5t-53.5 18.5t-44.5 8.5
q-21 0 -35 -7.5t-25.5 -16.5t-23 -16.5t-27.5 -7.5q-24 0 -33.5 13t-9.5 31z" />
    <glyph glyph-name="uni00A0" unicode="&#xa0;" 
 />
    <glyph glyph-name="exclamdown" unicode="&#xa1;" horiz-adv-x="278" 
d="M72 32q0 13 1 30t3 40l19 212q2 27 10.5 40t33.5 13t33.5 -13t10.5 -40l19 -212q2 -23 3 -40t1 -30v-154q0 -32 -16 -51t-51 -19t-51 19t-16 51v154zM63 478q0 32 22 54t54 22t54 -22t22 -54t-22 -54t-54 -22t-54 22t-22 54z" />
    <glyph glyph-name="cent" unicode="&#xa2;" horiz-adv-x="480" 
d="M183 199v-20.5t1 -17.5h2l75 296q-1 1 -6 1q-23 0 -37.5 -6t-22 -24t-10 -51.5t-2.5 -89.5v-88zM61 320q0 49 5 91.5t24 74t55.5 50t99.5 18.5h19.5t20.5 -2l11 44q10 37 31 37q6 0 11.5 -5t5.5 -11q0 -10 -4 -23l-13 -50q43 -11 70 -44.5t27 -101.5q0 -23 -12 -41.5
t-41 -18.5q-32 0 -42.5 14.5t-15.5 53.5q-3 23 -12 34l-88 -348q12 -9 36 -9q33 0 47 17t15 48q1 45 16 62.5t42 17.5q32 0 44 -19.5t12 -50.5q0 -53 -14 -86.5t-39 -52t-59 -25.5t-73 -7q-14 0 -27 1t-25 3l-19 -73q-7 -28 -27 -28q-18 0 -18 20q0 12 4 27l17 69
q-28 12 -44.5 33.5t-25.5 49.5t-11.5 61.5t-2.5 70.5v99z" />
    <glyph glyph-name="sterling" unicode="&#xa3;" horiz-adv-x="480" 
d="M328 386q26 0 36.5 -14.5t10.5 -28.5t-10.5 -28.5t-36.5 -14.5h-81q8 -22 8 -42q0 -34 -23 -77t-71 -83l2 -2q17 6 36 10.5t42 4.5q20 0 34.5 -3t26.5 -6t23.5 -6t26.5 -3q12 0 20.5 2t16 4.5t15.5 4.5t19 2q18 0 32.5 -11.5t14.5 -36.5q0 -18 -10 -31.5t-27 -22.5
t-38.5 -13t-44.5 -4t-45.5 4.5t-44 9.5t-42.5 9.5t-40 4.5q-13 0 -26.5 -3t-27.5 -8q-28 -10 -48 -10t-30.5 17t-10.5 38q0 16 15.5 32t33.5 35.5t33.5 45.5t15.5 63q0 22 -2.5 41t-7.5 34h-54q-26 0 -36.5 14.5t-10.5 28.5t10.5 28.5t36.5 14.5h16q-13 29 -24 61t-11 76
q0 45 16 81.5t44.5 62t67.5 39.5t84 14q49 0 85.5 -14t60.5 -38t36 -54.5t12 -63.5q0 -31 -17 -48t-49 -17q-31 0 -44 16t-18 48q-10 70 -71 70q-21 0 -36 -8t-24.5 -21.5t-14 -31t-4.5 -35.5q0 -42 12.5 -75t26.5 -62h111z" />
    <glyph glyph-name="currency" unicode="&#xa4;" horiz-adv-x="480" 
d="M39 220q-18 28 -28.5 61t-10.5 72t10.5 72t28.5 61l-23 20q-8 8 -11 16.5t-3 15.5q0 20 14.5 34.5t33.5 14.5q11 0 21 -3.5t18 -12.5l18 -18q57 40 133 40q77 0 132 -40l18 18q9 9 18.5 12.5t20.5 3.5q19 0 33.5 -14.5t14.5 -34.5q0 -7 -3 -15.5t-11 -16.5l-23 -20
q18 -28 29 -61t11 -72t-11 -72t-29 -61l23 -20q8 -8 11 -16.5t3 -15.5q0 -20 -14.5 -34.5t-33.5 -14.5q-22 0 -39 16l-18 18q-55 -40 -132 -40q-76 0 -133 40l-18 -18q-16 -16 -39 -16q-19 0 -33.5 14.5t-14.5 34.5q0 7 3 15.5t11 16.5zM122 353q0 -61 31.5 -93.5
t86.5 -32.5t86.5 32.5t31.5 93.5t-31.5 93.5t-86.5 32.5t-86.5 -32.5t-31.5 -93.5z" />
    <glyph glyph-name="yen" unicode="&#xa5;" horiz-adv-x="480" 
d="M176 280h-81q-25 0 -37 11t-12 30q0 18 12 29t37 11h53l-119 266q-5 10 -7.5 19.5t-2.5 20.5q0 20 16.5 36.5t47.5 16.5q22 0 35.5 -9.5t26.5 -43.5l95 -257l95 257q13 34 26.5 43.5t35.5 9.5q31 0 47.5 -16.5t16.5 -36.5q0 -11 -2.5 -20.5t-7.5 -19.5l-119 -266h65
q25 0 37 -11t12 -29q0 -19 -12 -30t-37 -11h-93v-64h93q25 0 37 -11t12 -29q0 -19 -12 -30t-37 -11h-93v-80q0 -31 -19.5 -49.5t-44.5 -18.5t-44.5 18.5t-19.5 49.5v80h-81q-25 0 -37 11t-12 30q0 18 12 29t37 11h81v64z" />
    <glyph glyph-name="brokenbar" unicode="&#xa6;" horiz-adv-x="222" 
d="M54 223q0 38 16 55.5t41 17.5t41 -17.5t16 -55.5v-167q0 -38 -16 -55.5t-41 -17.5t-41 17.5t-16 55.5v167zM54 664q0 38 16 55.5t41 17.5t41 -17.5t16 -55.5v-167q0 -38 -16 -55.5t-41 -17.5t-41 17.5t-16 55.5v167z" />
    <glyph glyph-name="section" unicode="&#xa7;" horiz-adv-x="481" 
d="M128 148q-50 38 -72 77.5t-22 84.5q0 47 19.5 85.5t57.5 63.5q-23 24 -33.5 54t-10.5 57q0 28 9 57.5t29.5 54t54.5 40t84 15.5q46 0 79 -11.5t54 -30.5t31 -42t10 -45q0 -26 -18 -41.5t-45 -15.5q-20 0 -33.5 10t-22.5 37q-8 26 -21 34.5t-30 8.5q-18 0 -29.5 -6
t-18 -15t-9 -19.5t-2.5 -18.5q0 -21 13.5 -40.5t46.5 -44.5l89 -68q30 -23 50.5 -43.5t33.5 -41t19 -42t6 -46.5q0 -45 -21.5 -81.5t-57.5 -60.5l12 -14q21 -25 30 -48.5t9 -55.5q0 -44 -14.5 -77.5t-40 -55.5t-59.5 -33t-74 -11q-50 0 -84 14.5t-55 35.5t-30.5 45t-9.5 44
q0 29 16.5 44.5t45.5 15.5q21 0 35 -10t21 -39q7 -28 22.5 -41t44.5 -13q30 0 45 18t15 44q0 25 -16 47t-54 50zM297 179q20 13 28 28.5t8 27.5q0 21 -13.5 39.5t-48.5 45.5l-87 69q-18 -11 -27 -26.5t-9 -33.5t10.5 -33.5t34.5 -34.5z" />
    <glyph glyph-name="dieresis" unicode="&#xa8;" 
d="M-40 666q0 28 19.5 47.5t47.5 19.5t47.5 -19.5t19.5 -47.5t-19.5 -47.5t-47.5 -19.5t-47.5 19.5t-19.5 47.5zM146 666q0 28 19.5 47.5t47.5 19.5t47.5 -19.5t19.5 -47.5t-19.5 -47.5t-47.5 -19.5t-47.5 19.5t-19.5 47.5z" />
    <glyph glyph-name="copyright" unicode="&#xa9;" horiz-adv-x="800" 
d="M216 363q0 47 14 87t39.5 69t62 45.5t82.5 16.5q39 0 70 -11.5t52 -29.5t32.5 -39.5t11.5 -41.5t-10.5 -34.5t-31.5 -14.5q-20 0 -32 10.5t-21 32.5q-14 37 -72 37q-42 0 -66.5 -33t-24.5 -92q0 -57 24.5 -92.5t68.5 -35.5q23 0 43 11.5t28 27.5q13 25 26 35t30 10
q19 0 30.5 -12t11.5 -32q0 -15 -11 -37t-32.5 -43t-53 -36t-71.5 -15q-45 0 -82 16.5t-63 46t-40.5 69t-14.5 85.5zM23 360q0 78 29.5 146.5t81 120t120 81t146.5 29.5t146.5 -29.5t120 -81t81 -120t29.5 -146.5t-29.5 -146.5t-81 -120t-120 -81t-146.5 -29.5t-146.5 29.5
t-120 81t-81 120t-29.5 146.5zM137 360q0 -60 19.5 -110t54.5 -86t83.5 -55.5t105.5 -19.5t105.5 19.5t83.5 55.5t54.5 86t19.5 110t-19.5 110t-54.5 86t-83.5 55.5t-105.5 19.5t-105.5 -19.5t-83.5 -55.5t-54.5 -86t-19.5 -110z" />
    <glyph glyph-name="ordfeminine" unicode="&#xaa;" horiz-adv-x="289" 
d="M273 458q0 -16 2 -28.5t2 -20.5q0 -29 -39 -29q-29 0 -43.5 9t-13.5 32h-2q-11 -22 -32.5 -31.5t-52.5 -9.5q-35 0 -58.5 20.5t-23.5 66.5q0 37 12 61t44 37l84 34q14 6 19.5 14t5.5 19t-7.5 20.5t-22.5 9.5q-20 0 -28.5 -9.5t-10.5 -29.5q-2 -11 -14 -17t-41 -6
q-13 0 -27 6.5t-14 23.5q0 45 34 67.5t92 22.5q46 0 73 -7.5t40.5 -20.5t17.5 -30.5t4 -37.5v-166zM177 555l-27 -16q-27 -16 -34.5 -27.5t-7.5 -31.5q0 -36 28 -36q20 0 30.5 16.5t10.5 40.5v54z" />
    <glyph glyph-name="guillemotleft" unicode="&#xab;" horiz-adv-x="426" 
d="M366 219q12 -11 19.5 -19.5t7.5 -18.5q0 -22 -13.5 -33t-30.5 -11t-31 14l-72 65q-22 20 -29 34.5t-7 32.5t7 32.5t29 34.5l72 65q14 14 31 14t30.5 -11t13.5 -33q0 -10 -7.5 -18.5t-19.5 -19.5l-73 -64zM189 219q12 -11 19.5 -19.5t7.5 -18.5q0 -22 -13.5 -33t-30.5 -11
t-31 14l-72 65q-22 20 -29 34.5t-7 32.5t7 32.5t29 34.5l72 65q14 14 31 14t30.5 -11t13.5 -33q0 -10 -7.5 -18.5t-19.5 -19.5l-73 -64z" />
    <glyph glyph-name="logicalnot" unicode="&#xac;" horiz-adv-x="600" 
d="M583 182q0 -32 -15.5 -51t-37.5 -19t-37.5 19t-15.5 51v166h-390q-32 0 -51 15.5t-19 37.5t19 37.5t51 15.5h426q32 0 51 -16t19 -41v-215z" />
    <glyph glyph-name="uni00AD" unicode="&#xad;" horiz-adv-x="333" 
d="M101 226q-32 0 -47 17t-15 40t15 40t47 17h131q32 0 47 -17t15 -40t-15 -40t-47 -17h-131z" />
    <glyph glyph-name="registered" unicode="&#xae;" horiz-adv-x="800" 
d="M251 522q0 23 14 34t32 11h126q34 0 61 -5.5t46 -19.5t29 -37.5t10 -58.5q0 -28 -8 -48.5t-20 -35t-27 -22t-28 -8.5l69 -95q3 -4 5.5 -11t2.5 -15q0 -17 -11.5 -29.5t-35.5 -12.5q-17 0 -27 7.5t-24 26.5l-93 129h-30v-117q0 -23 -13.5 -34.5t-31.5 -11.5t-32 11.5
t-14 34.5v307zM342 402h73q22 0 37.5 8.5t15.5 38.5t-15.5 39t-37.5 9h-73v-95zM23 360q0 78 29.5 146.5t81 120t120 81t146.5 29.5t146.5 -29.5t120 -81t81 -120t29.5 -146.5t-29.5 -146.5t-81 -120t-120 -81t-146.5 -29.5t-146.5 29.5t-120 81t-81 120t-29.5 146.5z
M137 360q0 -60 19.5 -110t54.5 -86t83.5 -55.5t105.5 -19.5t105.5 19.5t83.5 55.5t54.5 86t19.5 110t-19.5 110t-54.5 86t-83.5 55.5t-105.5 19.5t-105.5 -19.5t-83.5 -55.5t-54.5 -86t-19.5 -110z" />
    <glyph glyph-name="macron" unicode="&#xaf;" 
d="M239 707q49 0 49 -43t-49 -43h-238q-49 0 -49 43t49 43h238z" />
    <glyph glyph-name="degree" unicode="&#xb0;" horiz-adv-x="400" 
d="M57 577q0 30 11 56t30.5 45.5t45.5 30.5t56 11t56 -11t45.5 -30.5t30.5 -45.5t11 -56t-11 -56t-30.5 -45.5t-45.5 -30.5t-56 -11t-56 11t-45.5 30.5t-30.5 45.5t-11 56zM133 577q0 -28 19.5 -47.5t47.5 -19.5t47.5 19.5t19.5 47.5t-19.5 47.5t-47.5 19.5t-47.5 -19.5
t-19.5 -47.5z" />
    <glyph glyph-name="plusminus" unicode="&#xb1;" horiz-adv-x="600" 
d="M247 496q0 31 15 50.5t38 19.5t38 -19.5t15 -50.5v-79h160q32 0 51 -15.5t19 -37.5t-19 -37.5t-51 -15.5h-160v-79q0 -31 -15 -50.5t-38 -19.5t-38 19.5t-15 50.5v79h-160q-32 0 -51 15.5t-19 37.5t19 37.5t51 15.5h160v79zM513 106q32 0 51 -15.5t19 -37.5t-19 -37.5
t-51 -15.5h-426q-32 0 -51 15.5t-19 37.5t19 37.5t51 15.5h426z" />
    <glyph glyph-name="twosuperior" unicode="&#xb2;" horiz-adv-x="312" 
d="M55 287q-39 0 -39 34q0 12 4 28.5t13.5 37.5t26.5 44.5t44 48.5l30 28q34 31 45.5 51t11.5 41t-10.5 35.5t-27.5 14.5q-20 0 -29 -16t-11 -43q-2 -18 -14 -26t-32 -8q-29 0 -37 15t-8 33q0 53 33 84t96 31q70 0 105.5 -28t35.5 -80q0 -30 -14 -60t-43 -57l-54 -49
q-27 -25 -40.5 -44t-19.5 -39h128q22 0 34.5 -7.5t12.5 -30.5t-12.5 -30.5t-34.5 -7.5h-194z" />
    <glyph glyph-name="threesuperior" unicode="&#xb3;" horiz-adv-x="316" 
d="M154 280q-46 0 -74 12t-43 29.5t-20 36t-5 32.5q0 22 10.5 35t35.5 13q47 0 50 -42q2 -23 12.5 -37.5t35.5 -14.5q27 0 37 20.5t10 47.5q0 44 -14 57t-40 15t-35.5 9t-9.5 22q0 16 7.5 22t33.5 11q27 5 37.5 17.5t10.5 44.5q0 17 -8.5 31.5t-31.5 14.5q-35 0 -42 -37
q-3 -17 -14 -25t-34 -8t-33 10t-10 26q0 41 30 69.5t101 28.5q40 0 67.5 -8.5t44 -23.5t24 -35t7.5 -44q0 -32 -13.5 -56t-42.5 -32v-2q38 -12 52 -38t14 -68q0 -63 -34.5 -98t-115.5 -35z" />
    <glyph glyph-name="acute" unicode="&#xb4;" 
d="M150 751q11 11 19 13.5t20 2.5q16 0 30 -11.5t14 -31.5q0 -14 -7.5 -25.5t-17.5 -20.5l-79 -73q-8 -8 -16.5 -12t-19.5 -4q-20 0 -31 12.5t-11 31.5q0 18 15 33z" />
    <glyph glyph-name="mu" unicode="&#xb5;" horiz-adv-x="463" 
d="M54 481q0 38 16.5 55.5t44.5 17.5t44.5 -17.5t16.5 -55.5v-331q0 -30 12 -43.5t35 -13.5q32 0 48 23t16 74v291q0 38 16.5 55.5t44.5 17.5t44.5 -17.5t16.5 -55.5v-421q0 -38 -16.5 -55.5t-44.5 -17.5t-44.5 17.5t-16.5 52.5h-2q-5 -12 -14.5 -24.5t-21.5 -22.5
q-13 -11 -27 -17t-28 -6q-5 0 -9.5 2t-6.5 7h-2v-130q0 -38 -16.5 -55.5t-44.5 -17.5t-44.5 17.5t-16.5 55.5v615z" />
    <glyph glyph-name="paragraph" unicode="&#xb6;" horiz-adv-x="481" 
d="M162 371q-29 0 -54.5 11.5t-45 33.5t-31 54t-11.5 72q0 54 15 88.5t38 54.5t52 27.5t56 7.5h211q23 0 36 -16.5t13 -43.5v-764q0 -27 -13.5 -43.5t-36.5 -16.5q-24 0 -37.5 16.5t-13.5 43.5v733h-77v-733q0 -27 -13.5 -43.5t-37.5 -16.5q-23 0 -36.5 16.5t-13.5 43.5v475
z" />
    <glyph glyph-name="periodcentered" unicode="&#xb7;" 
d="M44 305q0 32 22 54t54 22t54 -22t22 -54t-22 -54t-54 -22t-54 22t-22 54z" />
    <glyph glyph-name="cedilla" unicode="&#xb8;" 
d="M115 -56h13q38 0 62.5 -16t24.5 -54q0 -42 -34.5 -66t-83.5 -24q-32 0 -55 10.5t-23 27.5q0 11 6 18t14 7q14 0 27 -5.5t24 -5.5q17 0 30.5 8.5t13.5 27.5q0 14 -10 23t-24 9q-8 0 -16 -1.5t-15 -1.5q-8 0 -13.5 5t-5.5 11t11 23l38 60h52z" />
    <glyph glyph-name="onesuperior" unicode="&#xb9;" 
d="M42 580q-16 0 -26.5 6t-10.5 22q0 27 27 31q38 5 57 17t30 33q6 10 10.5 16.5t9.5 9.5t11.5 4t17.5 1q16 0 25.5 -7.5t9.5 -25.5v-365q0 -20 -14 -31t-37 -11q-22 0 -36 11t-14 31v258h-60z" />
    <glyph glyph-name="ordmasculine" unicode="&#xba;" horiz-adv-x="289" 
d="M181 581q0 45 -8 60t-29 15t-28.5 -15t-7.5 -60v-63q0 -45 7.5 -59.5t28.5 -14.5t29 14.5t8 59.5v63zM277 506q0 -26 -5.5 -49t-20.5 -40t-41 -27t-66 -10q-41 0 -66.5 10t-40 27t-20 40t-5.5 49v88q0 26 5.5 49t20 40t40 27t66.5 10q40 0 66 -10t41 -27t20.5 -40
t5.5 -49v-88z" />
    <glyph glyph-name="guillemotright" unicode="&#xbb;" horiz-adv-x="426" 
d="M60 347q-12 11 -19.5 19.5t-7.5 18.5q0 22 13.5 33t30.5 11t31 -14l72 -65q22 -20 29 -34.5t7 -32.5t-7 -32.5t-29 -34.5l-72 -65q-14 -14 -31 -14t-30.5 11t-13.5 33q0 10 7.5 18.5t19.5 19.5l73 64zM237 347q-12 11 -19.5 19.5t-7.5 18.5q0 22 13.5 33t30.5 11t31 -14
l72 -65q22 -20 29 -34.5t7 -32.5t-7 -32.5t-29 -34.5l-72 -65q-14 -14 -31 -14t-30.5 11t-13.5 33q0 10 7.5 18.5t19.5 19.5l73 64z" />
    <glyph glyph-name="onequarter" unicode="&#xbc;" horiz-adv-x="740" 
d="M582 315h-2l-86 -171h88v171zM582 68h-115q-26 0 -38.5 8t-12.5 31q0 14 3 24.5t10 23.5l130 248q6 11 18.5 17.5t41.5 6.5q32 0 43 -11.5t11 -26.5v-245h15q12 0 24 -7.5t12 -30.5t-12 -30.5t-24 -7.5h-15v-37q0 -44 -46 -44q-45 0 -45 44v37zM472 719q5 11 15.5 18.5
t27.5 7.5q18 0 26.5 -10t8.5 -21q0 -16 -6 -29l-303 -697q-5 -11 -15.5 -18.5t-27.5 -7.5q-18 0 -26.5 10t-8.5 21q0 15 6 29zM35 580q-16 0 -26.5 6t-10.5 22q0 27 27 31q38 5 57 17t30 33q6 10 10.5 16.5t9.5 9.5t11.5 4t17.5 1q16 0 25.5 -7.5t9.5 -25.5v-365
q0 -20 -14 -31t-37 -11q-22 0 -36 11t-14 31v258h-60z" />
    <glyph glyph-name="onehalf" unicode="&#xbd;" horiz-adv-x="740" 
d="M468 719q5 11 15.5 18.5t27.5 7.5q18 0 26.5 -10t8.5 -21q0 -16 -6 -29l-303 -697q-5 -11 -15.5 -18.5t-27.5 -7.5q-18 0 -26.5 10t-8.5 21q0 15 6 29zM35 580q-16 0 -26.5 6t-10.5 22q0 27 27 31q38 5 57 17t30 33q6 10 10.5 16.5t9.5 9.5t11.5 4t17.5 1q16 0 25.5 -7.5
t9.5 -25.5v-365q0 -20 -14 -31t-37 -11q-22 0 -36 11t-14 31v258h-60zM483 0q-39 0 -39 34q0 12 4 28.5t13.5 37.5t26.5 44.5t44 48.5l30 28q34 31 45.5 51t11.5 41t-10.5 35.5t-27.5 14.5q-20 0 -29 -16t-11 -43q-2 -18 -14 -26t-32 -8q-29 0 -37 15t-8 33q0 53 33 84
t96 31q70 0 105.5 -28t35.5 -80q0 -30 -14 -60t-43 -57l-54 -49q-27 -25 -40.5 -44t-19.5 -39h128q22 0 34.5 -7.5t12.5 -30.5t-12.5 -30.5t-34.5 -7.5h-194z" />
    <glyph glyph-name="threequarters" unicode="&#xbe;" horiz-adv-x="740" 
d="M582 315h-2l-86 -171h88v171zM582 68h-115q-26 0 -38.5 8t-12.5 31q0 14 3 24.5t10 23.5l130 248q6 11 18.5 17.5t41.5 6.5q32 0 43 -11.5t11 -26.5v-245h15q12 0 24 -7.5t12 -30.5t-12 -30.5t-24 -7.5h-15v-37q0 -44 -46 -44q-45 0 -45 44v37zM504 719q5 11 15.5 18.5
t27.5 7.5q18 0 26.5 -10t8.5 -21q0 -16 -6 -29l-303 -697q-5 -11 -15.5 -18.5t-27.5 -7.5q-18 0 -26.5 10t-8.5 21q0 15 6 29zM153 280q-46 0 -74 12t-43 29.5t-20 36t-5 32.5q0 22 10.5 35t35.5 13q47 0 50 -42q2 -23 12.5 -37.5t35.5 -14.5q27 0 37 20.5t10 47.5
q0 44 -14 57t-40 15t-35.5 9t-9.5 22q0 16 7.5 22t33.5 11q27 5 37.5 17.5t10.5 44.5q0 17 -8.5 31.5t-31.5 14.5q-35 0 -42 -37q-3 -17 -14 -25t-34 -8t-33 10t-10 26q0 41 30 69.5t101 28.5q40 0 67.5 -8.5t44 -23.5t24 -35t7.5 -44q0 -32 -13.5 -56t-42.5 -32v-2
q38 -12 52 -38t14 -68q0 -63 -34.5 -98t-115.5 -35z" />
    <glyph glyph-name="questiondown" unicode="&#xbf;" horiz-adv-x="481" 
d="M163 196q16 18 27 32t18 27t10.5 27t5.5 33q2 22 16 37t41 15q24 0 40.5 -16.5t16.5 -46.5q0 -35 -14 -74t-44 -74l-36 -41q-36 -42 -46.5 -72.5t-10.5 -56.5q0 -32 15.5 -54.5t46.5 -22.5q23 0 39 14.5t20 40.5q5 37 19 51.5t43 14.5q27 0 43.5 -16.5t16.5 -44.5
q0 -35 -12 -64t-34.5 -51t-55 -34t-74.5 -12q-97 0 -146 46.5t-49 140.5q0 51 19 89.5t56 79.5zM205 478q0 32 22 54t54 22t54 -22t22 -54t-22 -54t-54 -22t-54 22t-22 54z" />
    <glyph glyph-name="Agrave" unicode="&#xc0;" horiz-adv-x="519" 
d="M173 180l-27 -130q-7 -34 -22.5 -48.5t-47.5 -14.5q-30 0 -46.5 16t-16.5 42q0 9 2 24.5t6 30.5l128 539q6 27 13.5 45.5t19.5 29t30.5 15t46.5 4.5q25 0 43 -4.5t31 -15t21.5 -29t14.5 -45.5l127 -535q4 -17 7 -32t3 -23q0 -34 -20.5 -48t-45.5 -14q-37 0 -54 18.5
t-27 68.5l-21 106h-165zM317 286l-59 299h-2l-61 -299h122zM178 857q-10 9 -17.5 20.5t-7.5 25.5q0 20 14 31.5t30 11.5q12 0 20 -2.5t19 -13.5l84 -85q15 -15 15 -33q0 -19 -11 -31.5t-31 -12.5q-11 0 -19.5 4t-16.5 12z" />
    <glyph glyph-name="Aacute" unicode="&#xc1;" horiz-adv-x="519" 
d="M173 180l-27 -130q-7 -34 -22.5 -48.5t-47.5 -14.5q-30 0 -46.5 16t-16.5 42q0 9 2 24.5t6 30.5l128 539q6 27 13.5 45.5t19.5 29t30.5 15t46.5 4.5q25 0 43 -4.5t31 -15t21.5 -29t14.5 -45.5l127 -535q4 -17 7 -32t3 -23q0 -34 -20.5 -48t-45.5 -14q-37 0 -54 18.5
t-27 68.5l-21 106h-165zM317 286l-59 299h-2l-61 -299h122zM296 930q11 11 19 13.5t20 2.5q16 0 30 -11.5t14 -31.5q0 -14 -7.5 -25.5t-17.5 -20.5l-79 -73q-8 -8 -16.5 -12t-19.5 -4q-20 0 -31 12.5t-11 31.5q0 18 15 33z" />
    <glyph glyph-name="Acircumflex" unicode="&#xc2;" horiz-adv-x="519" 
d="M173 180l-27 -130q-7 -34 -22.5 -48.5t-47.5 -14.5q-30 0 -46.5 16t-16.5 42q0 9 2 24.5t6 30.5l128 539q6 27 13.5 45.5t19.5 29t30.5 15t46.5 4.5q25 0 43 -4.5t31 -15t21.5 -29t14.5 -45.5l127 -535q4 -17 7 -32t3 -23q0 -34 -20.5 -48t-45.5 -14q-37 0 -54 18.5
t-27 68.5l-21 106h-165zM317 286l-59 299h-2l-61 -299h122zM193 905q17 25 33.5 33t39.5 8t39.5 -8t33.5 -33l43 -65q7 -10 9.5 -16.5t2.5 -14.5q0 -18 -12 -29.5t-32 -11.5q-13 0 -21.5 6t-14.5 16l-48 80l-48 -80q-6 -10 -14.5 -16t-21.5 -6q-20 0 -32 11.5t-12 29.5
q0 8 2.5 14.5t9.5 16.5z" />
    <glyph glyph-name="Atilde" unicode="&#xc3;" horiz-adv-x="519" 
d="M173 180l-27 -130q-7 -34 -22.5 -48.5t-47.5 -14.5q-30 0 -46.5 16t-16.5 42q0 9 2 24.5t6 30.5l128 539q6 27 13.5 45.5t19.5 29t30.5 15t46.5 4.5q25 0 43 -4.5t31 -15t21.5 -29t14.5 -45.5l127 -535q4 -17 7 -32t3 -23q0 -34 -20.5 -48t-45.5 -14q-37 0 -54 18.5
t-27 68.5l-21 106h-165zM317 286l-59 299h-2l-61 -299h122zM101 814q0 15 9 30t23 27t31.5 20t34.5 8q19 0 36.5 -4t33 -9t27.5 -9t20 -4q12 0 21 5.5t17.5 12t17 12t19.5 5.5q17 0 28.5 -10t11.5 -26q0 -15 -8 -31t-21.5 -29t-31 -21.5t-36.5 -8.5q-7 0 -25 4t-38 9
t-37.5 9t-22.5 4q-10 0 -18 -5.5t-15.5 -11.5t-15.5 -11.5t-18 -5.5q-18 0 -30.5 10.5t-12.5 29.5z" />
    <glyph glyph-name="Adieresis" unicode="&#xc4;" horiz-adv-x="519" 
d="M173 180l-27 -130q-7 -34 -22.5 -48.5t-47.5 -14.5q-30 0 -46.5 16t-16.5 42q0 9 2 24.5t6 30.5l128 539q6 27 13.5 45.5t19.5 29t30.5 15t46.5 4.5q25 0 43 -4.5t31 -15t21.5 -29t14.5 -45.5l127 -535q4 -17 7 -32t3 -23q0 -34 -20.5 -48t-45.5 -14q-37 0 -54 18.5
t-27 68.5l-21 106h-165zM317 286l-59 299h-2l-61 -299h122zM106 845q0 28 19.5 47.5t47.5 19.5t47.5 -19.5t19.5 -47.5t-19.5 -47.5t-47.5 -19.5t-47.5 19.5t-19.5 47.5zM292 845q0 28 19.5 47.5t47.5 19.5t47.5 -19.5t19.5 -47.5t-19.5 -47.5t-47.5 -19.5t-47.5 19.5
t-19.5 47.5z" />
    <glyph glyph-name="Aring" unicode="&#xc5;" horiz-adv-x="519" 
d="M173 180l-27 -130q-7 -34 -22.5 -48.5t-47.5 -14.5q-30 0 -46.5 16t-16.5 42q0 9 2 24.5t6 30.5l128 539q6 27 13.5 45.5t19.5 29t30.5 15t46.5 4.5q25 0 43 -4.5t31 -15t21.5 -29t14.5 -45.5l127 -535q4 -17 7 -32t3 -23q0 -34 -20.5 -48t-45.5 -14q-37 0 -54 18.5
t-27 68.5l-21 106h-165zM317 286l-59 299h-2l-61 -299h122zM154 859q0 45 30.5 75.5t75.5 30.5t75.5 -30.5t30.5 -75.5t-30.5 -75.5t-75.5 -30.5t-75.5 30.5t-30.5 75.5zM212 859q0 -20 14 -34t34 -14t34 14t14 34t-14 34t-34 14t-34 -14t-14 -34z" />
    <glyph glyph-name="AE" unicode="&#xc6;" horiz-adv-x="778" 
d="M475 434h187q38 0 54 -17t16 -43t-16 -43t-54 -17h-187v-194h199q38 0 54 -17t16 -43t-16 -43t-54 -17h-261q-37 0 -54.5 17t-17.5 55v108h-164l-33 -121q-8 -29 -22.5 -50.5t-48.5 -21.5t-50.5 19t-16.5 39q0 8 2 16.5t5 19.5l167 585q8 26 24 40t48 14h422q38 0 54 -17
t16 -43t-16 -43t-54 -17h-199v-166zM206 286h135v320h-48z" />
    <glyph glyph-name="Ccedilla" unicode="&#xc7;" horiz-adv-x="500" 
d="M229 -17q-69 6 -107 37t-56.5 75.5t-22 97.5t-3.5 103v114q0 95 13.5 158t41.5 100.5t72 53t104 15.5q50 0 87.5 -14t63 -38.5t38.5 -57.5t13 -70q0 -35 -15 -57.5t-53 -22.5q-39 0 -52.5 18t-19.5 63q-10 73 -62 73q-23 0 -40 -7.5t-28.5 -33t-17 -73t-5.5 -128.5v-40
q0 -65 2 -113.5t10.5 -81t26 -49t48.5 -16.5q26 0 45.5 21t21.5 52q1 30 5 51t11.5 34t21 19t34.5 6q35 0 51.5 -21.5t16.5 -57.5q0 -105 -53 -154.5t-140 -55.5l-26 -39h13q38 0 62.5 -16t24.5 -54q0 -42 -34.5 -66t-83.5 -24q-32 0 -55 10.5t-23 27.5q0 11 6 18t14 7
q14 0 27 -5.5t24 -5.5q17 0 30.5 8.5t13.5 27.5q0 14 -10 23t-24 9q-8 0 -16 -1.5t-15 -1.5q-8 0 -13.5 5t-5.5 11t11 23z" />
    <glyph glyph-name="Egrave" unicode="&#xc8;" horiz-adv-x="500" 
d="M190 120h206q38 0 54 -17t16 -43t-16 -43t-54 -17h-268q-37 0 -54.5 17t-17.5 55v576q0 38 17.5 55t54.5 17h261q38 0 54 -17t16 -43t-16 -43t-54 -17h-199v-166h186q38 0 54 -17t16 -43t-16 -43t-54 -17h-186v-194zM174 857q-10 9 -17.5 20.5t-7.5 25.5q0 20 14 31.5
t30 11.5q12 0 20 -2.5t19 -13.5l84 -85q15 -15 15 -33q0 -19 -11 -31.5t-31 -12.5q-11 0 -19.5 4t-16.5 12z" />
    <glyph glyph-name="Eacute" unicode="&#xc9;" horiz-adv-x="500" 
d="M190 120h206q38 0 54 -17t16 -43t-16 -43t-54 -17h-268q-37 0 -54.5 17t-17.5 55v576q0 38 17.5 55t54.5 17h261q38 0 54 -17t16 -43t-16 -43t-54 -17h-199v-166h186q38 0 54 -17t16 -43t-16 -43t-54 -17h-186v-194zM292 930q11 11 19 13.5t20 2.5q16 0 30 -11.5
t14 -31.5q0 -14 -7.5 -25.5t-17.5 -20.5l-79 -73q-8 -8 -16.5 -12t-19.5 -4q-20 0 -31 12.5t-11 31.5q0 18 15 33z" />
    <glyph glyph-name="Ecircumflex" unicode="&#xca;" horiz-adv-x="500" 
d="M190 120h206q38 0 54 -17t16 -43t-16 -43t-54 -17h-268q-37 0 -54.5 17t-17.5 55v576q0 38 17.5 55t54.5 17h261q38 0 54 -17t16 -43t-16 -43t-54 -17h-199v-166h186q38 0 54 -17t16 -43t-16 -43t-54 -17h-186v-194zM189 905q17 25 33.5 33t39.5 8t39.5 -8t33.5 -33
l43 -65q7 -10 9.5 -16.5t2.5 -14.5q0 -18 -12 -29.5t-32 -11.5q-13 0 -21.5 6t-14.5 16l-48 80l-48 -80q-6 -10 -14.5 -16t-21.5 -6q-20 0 -32 11.5t-12 29.5q0 8 2.5 14.5t9.5 16.5z" />
    <glyph glyph-name="Edieresis" unicode="&#xcb;" horiz-adv-x="500" 
d="M190 120h206q38 0 54 -17t16 -43t-16 -43t-54 -17h-268q-37 0 -54.5 17t-17.5 55v576q0 38 17.5 55t54.5 17h261q38 0 54 -17t16 -43t-16 -43t-54 -17h-199v-166h186q38 0 54 -17t16 -43t-16 -43t-54 -17h-186v-194zM102 845q0 28 19.5 47.5t47.5 19.5t47.5 -19.5
t19.5 -47.5t-19.5 -47.5t-47.5 -19.5t-47.5 19.5t-19.5 47.5zM288 845q0 28 19.5 47.5t47.5 19.5t47.5 -19.5t19.5 -47.5t-19.5 -47.5t-47.5 -19.5t-47.5 19.5t-19.5 47.5z" />
    <glyph glyph-name="Igrave" unicode="&#xcc;" horiz-adv-x="258" 
d="M62 664q0 32 20 50.5t47 18.5t47 -18.5t20 -50.5v-608q0 -32 -20 -50.5t-47 -18.5t-47 18.5t-20 50.5v608zM47 857q-10 9 -17.5 20.5t-7.5 25.5q0 20 14 31.5t30 11.5q12 0 20 -2.5t19 -13.5l84 -85q15 -15 15 -33q0 -19 -11 -31.5t-31 -12.5q-11 0 -19.5 4t-16.5 12z
" />
    <glyph glyph-name="Iacute" unicode="&#xcd;" horiz-adv-x="258" 
d="M62 664q0 32 20 50.5t47 18.5t47 -18.5t20 -50.5v-608q0 -32 -20 -50.5t-47 -18.5t-47 18.5t-20 50.5v608zM165 930q11 11 19 13.5t20 2.5q16 0 30 -11.5t14 -31.5q0 -14 -7.5 -25.5t-17.5 -20.5l-79 -73q-8 -8 -16.5 -12t-19.5 -4q-20 0 -31 12.5t-11 31.5q0 18 15 33z
" />
    <glyph glyph-name="Icircumflex" unicode="&#xce;" horiz-adv-x="258" 
d="M62 664q0 32 20 50.5t47 18.5t47 -18.5t20 -50.5v-608q0 -32 -20 -50.5t-47 -18.5t-47 18.5t-20 50.5v608zM56 905q17 25 33.5 33t39.5 8t39.5 -8t33.5 -33l43 -65q7 -10 9.5 -16.5t2.5 -14.5q0 -18 -12 -29.5t-32 -11.5q-13 0 -21.5 6t-14.5 16l-48 80l-48 -80
q-6 -10 -14.5 -16t-21.5 -6q-20 0 -32 11.5t-12 29.5q0 8 2.5 14.5t9.5 16.5z" />
    <glyph glyph-name="Idieresis" unicode="&#xcf;" horiz-adv-x="258" 
d="M62 664q0 32 20 50.5t47 18.5t47 -18.5t20 -50.5v-608q0 -32 -20 -50.5t-47 -18.5t-47 18.5t-20 50.5v608zM-31 845q0 28 19.5 47.5t47.5 19.5t47.5 -19.5t19.5 -47.5t-19.5 -47.5t-47.5 -19.5t-47.5 19.5t-19.5 47.5zM155 845q0 28 19.5 47.5t47.5 19.5t47.5 -19.5
t19.5 -47.5t-19.5 -47.5t-47.5 -19.5t-47.5 19.5t-19.5 47.5z" />
    <glyph glyph-name="Eth" unicode="&#xd0;" horiz-adv-x="537" 
d="M190 427h60q17 0 28 -12.5t11 -38.5q0 -25 -11 -37.5t-28 -12.5h-60v-220h62q26 0 46 10t33 36t19.5 70.5t6.5 114.5v58q0 59 -4 100.5t-15.5 68t-31 38.5t-50.5 12h-66v-187zM56 326h-34q-17 0 -28 12.5t-11 37.5q0 26 11 38.5t28 12.5h34v221q0 38 17.5 55t54.5 17h175
q103 0 148.5 -76t45.5 -239v-93q0 -162 -52.5 -237t-147.5 -75h-169q-37 0 -54.5 17t-17.5 55v254z" />
    <glyph glyph-name="Ntilde" unicode="&#xd1;" horiz-adv-x="574" 
d="M56 664q0 32 19.5 50.5t54.5 18.5q31 0 53 -12.5t40 -55.5l159 -394h2v393q0 32 20 50.5t47 18.5t47 -18.5t20 -50.5v-602q0 -36 -20 -55.5t-47 -19.5q-41 0 -62.5 13t-37.5 55l-159 400h-2v-399q0 -32 -20 -50.5t-47 -18.5t-47 18.5t-20 50.5v608zM122 814q0 15 9 30
t23 27t31.5 20t34.5 8q19 0 36.5 -4t33 -9t27.5 -9t20 -4q12 0 21 5.5t17.5 12t17 12t19.5 5.5q17 0 28.5 -10t11.5 -26q0 -15 -8 -31t-21.5 -29t-31 -21.5t-36.5 -8.5q-7 0 -25 4t-38 9t-37.5 9t-22.5 4q-10 0 -18 -5.5t-15.5 -11.5t-15.5 -11.5t-18 -5.5q-18 0 -30.5 10.5
t-12.5 29.5z" />
    <glyph glyph-name="Ograve" unicode="&#xd2;" horiz-adv-x="520" 
d="M40 442q0 99 18.5 157.5t49.5 89t70.5 39.5t81.5 9t81.5 -9t70.5 -39.5t49.5 -89t18.5 -157.5v-152q0 -102 -17 -162.5t-46.5 -92.5t-70 -42t-86.5 -10q-47 0 -87 10t-69.5 42t-46.5 92.5t-17 162.5v152zM180 290q0 -66 5 -105.5t15 -61t25 -28t35 -6.5t35 6.5t25 28
t15 61t5 105.5v152q0 58 -5 95t-15 58t-25 28.5t-35 7.5t-35 -7.5t-25 -28.5t-15 -58t-5 -95v-152zM172 857q-10 9 -17.5 20.5t-7.5 25.5q0 20 14 31.5t30 11.5q12 0 20 -2.5t19 -13.5l84 -85q15 -15 15 -33q0 -19 -11 -31.5t-31 -12.5q-11 0 -19.5 4t-16.5 12z" />
    <glyph glyph-name="Oacute" unicode="&#xd3;" horiz-adv-x="520" 
d="M40 442q0 99 18.5 157.5t49.5 89t70.5 39.5t81.5 9t81.5 -9t70.5 -39.5t49.5 -89t18.5 -157.5v-152q0 -102 -17 -162.5t-46.5 -92.5t-70 -42t-86.5 -10q-47 0 -87 10t-69.5 42t-46.5 92.5t-17 162.5v152zM180 290q0 -66 5 -105.5t15 -61t25 -28t35 -6.5t35 6.5t25 28
t15 61t5 105.5v152q0 58 -5 95t-15 58t-25 28.5t-35 7.5t-35 -7.5t-25 -28.5t-15 -58t-5 -95v-152zM290 930q11 11 19 13.5t20 2.5q16 0 30 -11.5t14 -31.5q0 -14 -7.5 -25.5t-17.5 -20.5l-79 -73q-8 -8 -16.5 -12t-19.5 -4q-20 0 -31 12.5t-11 31.5q0 18 15 33z" />
    <glyph glyph-name="Ocircumflex" unicode="&#xd4;" horiz-adv-x="520" 
d="M40 442q0 99 18.5 157.5t49.5 89t70.5 39.5t81.5 9t81.5 -9t70.5 -39.5t49.5 -89t18.5 -157.5v-152q0 -102 -17 -162.5t-46.5 -92.5t-70 -42t-86.5 -10q-47 0 -87 10t-69.5 42t-46.5 92.5t-17 162.5v152zM180 290q0 -66 5 -105.5t15 -61t25 -28t35 -6.5t35 6.5t25 28
t15 61t5 105.5v152q0 58 -5 95t-15 58t-25 28.5t-35 7.5t-35 -7.5t-25 -28.5t-15 -58t-5 -95v-152zM187 905q17 25 33.5 33t39.5 8t39.5 -8t33.5 -33l43 -65q7 -10 9.5 -16.5t2.5 -14.5q0 -18 -12 -29.5t-32 -11.5q-13 0 -21.5 6t-14.5 16l-48 80l-48 -80q-6 -10 -14.5 -16
t-21.5 -6q-20 0 -32 11.5t-12 29.5q0 8 2.5 14.5t9.5 16.5z" />
    <glyph glyph-name="Otilde" unicode="&#xd5;" horiz-adv-x="520" 
d="M40 442q0 99 18.5 157.5t49.5 89t70.5 39.5t81.5 9t81.5 -9t70.5 -39.5t49.5 -89t18.5 -157.5v-152q0 -102 -17 -162.5t-46.5 -92.5t-70 -42t-86.5 -10q-47 0 -87 10t-69.5 42t-46.5 92.5t-17 162.5v152zM180 290q0 -66 5 -105.5t15 -61t25 -28t35 -6.5t35 6.5t25 28
t15 61t5 105.5v152q0 58 -5 95t-15 58t-25 28.5t-35 7.5t-35 -7.5t-25 -28.5t-15 -58t-5 -95v-152zM95 814q0 15 9 30t23 27t31.5 20t34.5 8q19 0 36.5 -4t33 -9t27.5 -9t20 -4q12 0 21 5.5t17.5 12t17 12t19.5 5.5q17 0 28.5 -10t11.5 -26q0 -15 -8 -31t-21.5 -29
t-31 -21.5t-36.5 -8.5q-7 0 -25 4t-38 9t-37.5 9t-22.5 4q-10 0 -18 -5.5t-15.5 -11.5t-15.5 -11.5t-18 -5.5q-18 0 -30.5 10.5t-12.5 29.5z" />
    <glyph glyph-name="Odieresis" unicode="&#xd6;" horiz-adv-x="520" 
d="M40 442q0 99 18.5 157.5t49.5 89t70.5 39.5t81.5 9t81.5 -9t70.5 -39.5t49.5 -89t18.5 -157.5v-152q0 -102 -17 -162.5t-46.5 -92.5t-70 -42t-86.5 -10q-47 0 -87 10t-69.5 42t-46.5 92.5t-17 162.5v152zM180 290q0 -66 5 -105.5t15 -61t25 -28t35 -6.5t35 6.5t25 28
t15 61t5 105.5v152q0 58 -5 95t-15 58t-25 28.5t-35 7.5t-35 -7.5t-25 -28.5t-15 -58t-5 -95v-152zM100 845q0 28 19.5 47.5t47.5 19.5t47.5 -19.5t19.5 -47.5t-19.5 -47.5t-47.5 -19.5t-47.5 19.5t-19.5 47.5zM286 845q0 28 19.5 47.5t47.5 19.5t47.5 -19.5t19.5 -47.5
t-19.5 -47.5t-47.5 -19.5t-47.5 19.5t-19.5 47.5z" />
    <glyph glyph-name="multiply" unicode="&#xd7;" horiz-adv-x="600" 
d="M87 420q-25 25 -25 57q0 16 14 30t32 14q29 0 55 -26l137 -137l137 137q26 26 55 26q18 0 32 -14t14 -30q0 -32 -25 -57l-138 -137l138 -137q25 -25 25 -57q0 -16 -14 -30t-32 -14q-29 0 -55 26l-137 137l-137 -137q-12 -12 -26.5 -19t-28.5 -7q-18 0 -32 14t-14 30
q0 32 25 57l138 137z" />
    <glyph glyph-name="Oslash" unicode="&#xd8;" horiz-adv-x="520" 
d="M180 274h2l153 262q-6 52 -24 73.5t-51 21.5q-20 0 -35 -7.5t-25 -28.5t-15 -58t-5 -95v-168zM340 447h-2l-153 -265q7 -53 23.5 -73t51.5 -20q20 0 35 6.5t25 28t15 61t5 105.5v157zM40 442q0 99 18.5 157.5t49.5 89t70.5 39.5t81.5 9q49 0 89.5 -11.5t68.5 -42.5l19 32
q10 17 16.5 24t17.5 7t17.5 -7t6.5 -15q0 -5 -3.5 -13t-8.5 -16l-35 -60q16 -36 24 -83t8 -110v-152q0 -102 -17 -162.5t-46.5 -92.5t-70 -42t-86.5 -10q-49 0 -89 10t-69 44l-14 -25q-9 -17 -19 -27.5t-21 -10.5t-17 7t-6 14q0 6 3 13t12 23l32 55q-16 30 -24 84.5
t-8 119.5v152z" />
    <glyph glyph-name="Ugrave" unicode="&#xd9;" horiz-adv-x="537" 
d="M51 664q0 32 20 50.5t47 18.5t47 -18.5t20 -50.5v-460q0 -60 23 -87.5t61 -27.5t60.5 27.5t22.5 87.5v460q0 32 20 50.5t47 18.5t47 -18.5t20 -50.5v-473q0 -95 -54.5 -151.5t-162.5 -56.5t-163 56.5t-55 151.5v473zM181 857q-10 9 -17.5 20.5t-7.5 25.5q0 20 14 31.5
t30 11.5q12 0 20 -2.5t19 -13.5l84 -85q15 -15 15 -33q0 -19 -11 -31.5t-31 -12.5q-11 0 -19.5 4t-16.5 12z" />
    <glyph glyph-name="Uacute" unicode="&#xda;" horiz-adv-x="537" 
d="M51 664q0 32 20 50.5t47 18.5t47 -18.5t20 -50.5v-460q0 -60 23 -87.5t61 -27.5t60.5 27.5t22.5 87.5v460q0 32 20 50.5t47 18.5t47 -18.5t20 -50.5v-473q0 -95 -54.5 -151.5t-162.5 -56.5t-163 56.5t-55 151.5v473zM299 930q11 11 19 13.5t20 2.5q16 0 30 -11.5
t14 -31.5q0 -14 -7.5 -25.5t-17.5 -20.5l-79 -73q-8 -8 -16.5 -12t-19.5 -4q-20 0 -31 12.5t-11 31.5q0 18 15 33z" />
    <glyph glyph-name="Ucircumflex" unicode="&#xdb;" horiz-adv-x="537" 
d="M51 664q0 32 20 50.5t47 18.5t47 -18.5t20 -50.5v-460q0 -60 23 -87.5t61 -27.5t60.5 27.5t22.5 87.5v460q0 32 20 50.5t47 18.5t47 -18.5t20 -50.5v-473q0 -95 -54.5 -151.5t-162.5 -56.5t-163 56.5t-55 151.5v473zM196 905q17 25 33.5 33t39.5 8t39.5 -8t33.5 -33
l43 -65q7 -10 9.5 -16.5t2.5 -14.5q0 -18 -12 -29.5t-32 -11.5q-13 0 -21.5 6t-14.5 16l-48 80l-48 -80q-6 -10 -14.5 -16t-21.5 -6q-20 0 -32 11.5t-12 29.5q0 8 2.5 14.5t9.5 16.5z" />
    <glyph glyph-name="Udieresis" unicode="&#xdc;" horiz-adv-x="537" 
d="M51 664q0 32 20 50.5t47 18.5t47 -18.5t20 -50.5v-460q0 -60 23 -87.5t61 -27.5t60.5 27.5t22.5 87.5v460q0 32 20 50.5t47 18.5t47 -18.5t20 -50.5v-473q0 -95 -54.5 -151.5t-162.5 -56.5t-163 56.5t-55 151.5v473zM109 845q0 28 19.5 47.5t47.5 19.5t47.5 -19.5
t19.5 -47.5t-19.5 -47.5t-47.5 -19.5t-47.5 19.5t-19.5 47.5zM295 845q0 28 19.5 47.5t47.5 19.5t47.5 -19.5t19.5 -47.5t-19.5 -47.5t-47.5 -19.5t-47.5 19.5t-19.5 47.5z" />
    <glyph glyph-name="Yacute" unicode="&#xdd;" horiz-adv-x="481" 
d="M174 296l-146 329q-7 16 -9.5 27.5t-2.5 19.5q0 32 20 46.5t46 14.5q31 0 45 -13t28 -50l86 -228l91 238q13 34 29.5 43.5t39.5 9.5q29 0 46.5 -17t17.5 -37q0 -19 -10 -41l-147 -335v-247q0 -32 -20 -50.5t-47 -18.5t-47 18.5t-20 50.5v240zM271 930q11 11 19 13.5
t20 2.5q16 0 30 -11.5t14 -31.5q0 -14 -7.5 -25.5t-17.5 -20.5l-79 -73q-8 -8 -16.5 -12t-19.5 -4q-20 0 -31 12.5t-11 31.5q0 18 15 33z" />
    <glyph glyph-name="Thorn" unicode="&#xde;" horiz-adv-x="500" 
d="M56 664q0 32 20 50.5t47 18.5t47 -18.5t20 -50.5v-60h105q84 0 133 -47.5t49 -155.5q0 -43 -10.5 -81t-31.5 -67t-53 -46t-76 -17h-116v-134q0 -32 -20 -50.5t-47 -18.5t-47 18.5t-20 50.5v608zM190 291h60q45 0 66 28t21 76q0 57 -21 82.5t-59 25.5h-67v-212z" />
    <glyph glyph-name="germandbls" unicode="&#xdf;" horiz-adv-x="481" 
d="M54 570q0 79 47 121t140 42q86 0 131 -44.5t45 -121.5q0 -46 -16 -80.5t-55 -50.5v-2q49 -14 66 -58t17 -108q0 -51 -4 -100.5t-19 -88t-45 -62t-83 -23.5q-23 0 -42.5 12.5t-19.5 38.5q0 20 8.5 31.5t38.5 22.5q12 4 19 12.5t11.5 25t6 42.5t1.5 65q0 61 -9 92.5
t-39 42.5q-20 7 -27.5 18t-7.5 31q0 25 9.5 35t26.5 18t26 24t9 43q0 14 -2 29t-8 27t-16.5 20t-26.5 8q-29 0 -44.5 -18.5t-15.5 -59.5v-494q0 -38 -16.5 -55.5t-44.5 -17.5t-44.5 17.5t-16.5 55.5v510z" />
    <glyph glyph-name="agrave" unicode="&#xe0;" horiz-adv-x="444" 
d="M395 116q0 -26 3.5 -47t3.5 -34q0 -48 -61 -48q-25 0 -44.5 14.5t-19.5 54.5l-2 -1q-17 -37 -47.5 -52.5t-63.5 -15.5q-27 0 -50 8.5t-40 26t-26.5 45t-9.5 65.5q0 62 19.5 99.5t67.5 63.5l109 57q39 20 39 57q0 22 -12 38t-35 16q-32 0 -44 -16t-16 -48
q-2 -18 -18 -28.5t-40 -10.5q-10 0 -21.5 2.5t-21 8.5t-15.5 15.5t-6 23.5q0 35 13.5 62t36.5 45t54 27.5t66 9.5q61 0 97 -12.5t54.5 -34.5t24 -51t5.5 -62v-278zM273 280l-43 -30q-20 -14 -32.5 -25.5t-19.5 -23t-9.5 -24.5t-2.5 -30q0 -31 11.5 -47.5t31.5 -16.5
q30 0 47 29t17 72v96zM134 678q-10 9 -17.5 20.5t-7.5 25.5q0 20 14 31.5t30 11.5q12 0 20 -2.5t19 -13.5l84 -85q15 -15 15 -33q0 -19 -11 -31.5t-31 -12.5q-11 0 -19.5 4t-16.5 12z" />
    <glyph glyph-name="aacute" unicode="&#xe1;" horiz-adv-x="444" 
d="M395 116q0 -26 3.5 -47t3.5 -34q0 -48 -61 -48q-25 0 -44.5 14.5t-19.5 54.5l-2 -1q-17 -37 -47.5 -52.5t-63.5 -15.5q-27 0 -50 8.5t-40 26t-26.5 45t-9.5 65.5q0 62 19.5 99.5t67.5 63.5l109 57q39 20 39 57q0 22 -12 38t-35 16q-32 0 -44 -16t-16 -48
q-2 -18 -18 -28.5t-40 -10.5q-10 0 -21.5 2.5t-21 8.5t-15.5 15.5t-6 23.5q0 35 13.5 62t36.5 45t54 27.5t66 9.5q61 0 97 -12.5t54.5 -34.5t24 -51t5.5 -62v-278zM273 280l-43 -30q-20 -14 -32.5 -25.5t-19.5 -23t-9.5 -24.5t-2.5 -30q0 -31 11.5 -47.5t31.5 -16.5
q30 0 47 29t17 72v96zM252 751q11 11 19 13.5t20 2.5q16 0 30 -11.5t14 -31.5q0 -14 -7.5 -25.5t-17.5 -20.5l-79 -73q-8 -8 -16.5 -12t-19.5 -4q-20 0 -31 12.5t-11 31.5q0 18 15 33z" />
    <glyph glyph-name="acircumflex" unicode="&#xe2;" horiz-adv-x="444" 
d="M395 116q0 -26 3.5 -47t3.5 -34q0 -48 -61 -48q-25 0 -44.5 14.5t-19.5 54.5l-2 -1q-17 -37 -47.5 -52.5t-63.5 -15.5q-27 0 -50 8.5t-40 26t-26.5 45t-9.5 65.5q0 62 19.5 99.5t67.5 63.5l109 57q39 20 39 57q0 22 -12 38t-35 16q-32 0 -44 -16t-16 -48
q-2 -18 -18 -28.5t-40 -10.5q-10 0 -21.5 2.5t-21 8.5t-15.5 15.5t-6 23.5q0 35 13.5 62t36.5 45t54 27.5t66 9.5q61 0 97 -12.5t54.5 -34.5t24 -51t5.5 -62v-278zM273 280l-43 -30q-20 -14 -32.5 -25.5t-19.5 -23t-9.5 -24.5t-2.5 -30q0 -31 11.5 -47.5t31.5 -16.5
q30 0 47 29t17 72v96zM149 726q17 25 33.5 33t39.5 8t39.5 -8t33.5 -33l43 -65q7 -10 9.5 -16.5t2.5 -14.5q0 -18 -12 -29.5t-32 -11.5q-13 0 -21.5 6t-14.5 16l-48 80l-48 -80q-6 -10 -14.5 -16t-21.5 -6q-20 0 -32 11.5t-12 29.5q0 8 2.5 14.5t9.5 16.5z" />
    <glyph glyph-name="atilde" unicode="&#xe3;" horiz-adv-x="444" 
d="M395 116q0 -26 3.5 -47t3.5 -34q0 -48 -61 -48q-25 0 -44.5 14.5t-19.5 54.5l-2 -1q-17 -37 -47.5 -52.5t-63.5 -15.5q-27 0 -50 8.5t-40 26t-26.5 45t-9.5 65.5q0 62 19.5 99.5t67.5 63.5l109 57q39 20 39 57q0 22 -12 38t-35 16q-32 0 -44 -16t-16 -48
q-2 -18 -18 -28.5t-40 -10.5q-10 0 -21.5 2.5t-21 8.5t-15.5 15.5t-6 23.5q0 35 13.5 62t36.5 45t54 27.5t66 9.5q61 0 97 -12.5t54.5 -34.5t24 -51t5.5 -62v-278zM273 280l-43 -30q-20 -14 -32.5 -25.5t-19.5 -23t-9.5 -24.5t-2.5 -30q0 -31 11.5 -47.5t31.5 -16.5
q30 0 47 29t17 72v96zM57 635q0 15 9 30t23 27t31.5 20t34.5 8q19 0 36.5 -4t33 -9t27.5 -9t20 -4q12 0 21 5.5t17.5 12t17 12t19.5 5.5q17 0 28.5 -10t11.5 -26q0 -15 -8 -31t-21.5 -29t-31 -21.5t-36.5 -8.5q-7 0 -25 4t-38 9t-37.5 9t-22.5 4q-10 0 -18 -5.5t-15.5 -11.5
t-15.5 -11.5t-18 -5.5q-18 0 -30.5 10.5t-12.5 29.5z" />
    <glyph glyph-name="adieresis" unicode="&#xe4;" horiz-adv-x="444" 
d="M395 116q0 -26 3.5 -47t3.5 -34q0 -48 -61 -48q-25 0 -44.5 14.5t-19.5 54.5l-2 -1q-17 -37 -47.5 -52.5t-63.5 -15.5q-27 0 -50 8.5t-40 26t-26.5 45t-9.5 65.5q0 62 19.5 99.5t67.5 63.5l109 57q39 20 39 57q0 22 -12 38t-35 16q-32 0 -44 -16t-16 -48
q-2 -18 -18 -28.5t-40 -10.5q-10 0 -21.5 2.5t-21 8.5t-15.5 15.5t-6 23.5q0 35 13.5 62t36.5 45t54 27.5t66 9.5q61 0 97 -12.5t54.5 -34.5t24 -51t5.5 -62v-278zM273 280l-43 -30q-20 -14 -32.5 -25.5t-19.5 -23t-9.5 -24.5t-2.5 -30q0 -31 11.5 -47.5t31.5 -16.5
q30 0 47 29t17 72v96zM62 666q0 28 19.5 47.5t47.5 19.5t47.5 -19.5t19.5 -47.5t-19.5 -47.5t-47.5 -19.5t-47.5 19.5t-19.5 47.5zM248 666q0 28 19.5 47.5t47.5 19.5t47.5 -19.5t19.5 -47.5t-19.5 -47.5t-47.5 -19.5t-47.5 19.5t-19.5 47.5z" />
    <glyph glyph-name="aring" unicode="&#xe5;" horiz-adv-x="444" 
d="M395 116q0 -26 3.5 -47t3.5 -34q0 -48 -61 -48q-25 0 -44.5 14.5t-19.5 54.5l-2 -1q-17 -37 -47.5 -52.5t-63.5 -15.5q-27 0 -50 8.5t-40 26t-26.5 45t-9.5 65.5q0 62 19.5 99.5t67.5 63.5l109 57q39 20 39 57q0 22 -12 38t-35 16q-32 0 -44 -16t-16 -48
q-2 -18 -18 -28.5t-40 -10.5q-10 0 -21.5 2.5t-21 8.5t-15.5 15.5t-6 23.5q0 35 13.5 62t36.5 45t54 27.5t66 9.5q61 0 97 -12.5t54.5 -34.5t24 -51t5.5 -62v-278zM273 280l-43 -30q-20 -14 -32.5 -25.5t-19.5 -23t-9.5 -24.5t-2.5 -30q0 -31 11.5 -47.5t31.5 -16.5
q30 0 47 29t17 72v96zM126 695q0 45 30.5 75.5t75.5 30.5t75.5 -30.5t30.5 -75.5t-30.5 -75.5t-75.5 -30.5t-75.5 30.5t-30.5 75.5zM184 695q0 -20 14 -34t34 -14t34 14t14 34t-14 34t-34 14t-34 -14t-14 -34z" />
    <glyph glyph-name="ae" unicode="&#xe6;" horiz-adv-x="648" 
d="M387 254v-55q0 -24 1.5 -45.5t7 -37t16.5 -24.5t30 -9q20 0 33.5 17t14.5 39q2 40 18 52.5t42 12.5q27 0 44.5 -12t17.5 -48q0 -74 -45.5 -115.5t-120.5 -41.5q-57 0 -92 16.5t-59 54.5q-25 -38 -59 -54.5t-72 -16.5q-27 0 -50 8.5t-40 26t-26.5 45t-9.5 65.5
q0 62 19.5 99.5t67.5 63.5l109 57q39 20 39 57q0 22 -12 38t-35 16q-32 0 -44 -16t-16 -48q-2 -18 -18 -28.5t-40 -10.5q-10 0 -21.5 2.5t-21 8.5t-15.5 15.5t-6 23.5q0 35 13.5 62t36.5 45t54 27.5t66 9.5q32 0 64.5 -8.5t55.5 -31.5q24 20 53.5 30t58.5 10
q95 0 132.5 -53.5t37.5 -159.5q0 -18 -2 -34t-9 -28t-20.5 -18.5t-36.5 -6.5h-161zM209 83q30 0 47 29t17 72v96l-43 -30q-20 -14 -32.5 -25.5t-19.5 -23t-9.5 -24.5t-2.5 -30q0 -31 11.5 -47.5t31.5 -16.5zM494 340v45q0 31 -11.5 52t-42.5 21q-30 0 -41.5 -21t-11.5 -52
v-45h107z" />
    <glyph glyph-name="ccedilla" unicode="&#xe7;" horiz-adv-x="426" 
d="M193 -11q-51 4 -81 24t-45.5 51t-20 71t-4.5 86v99q0 49 5 91.5t23.5 74t54 50t96.5 18.5q52 0 85 -16t52 -39.5t25.5 -49t6.5 -43.5q0 -36 -17 -52.5t-43 -16.5q-31 0 -46.5 15.5t-15.5 53.5q0 26 -13 39t-33 13q-18 0 -28.5 -9.5t-16 -27t-6.5 -40.5t-1 -50v-120
q0 -68 11.5 -98t40.5 -30q17 0 31 11.5t15 43.5q2 52 17.5 70t44.5 18q27 0 43.5 -18.5t16.5 -52.5q0 -19 -5.5 -45.5t-21 -52t-44 -44.5t-74.5 -23l-29 -46h13q38 0 62.5 -16t24.5 -54q0 -42 -34.5 -66t-83.5 -24q-32 0 -55 10.5t-23 27.5q0 11 6 18t14 7q14 0 27 -5.5
t24 -5.5q17 0 30.5 8.5t13.5 27.5q0 14 -10 23t-24 9q-8 0 -16 -1.5t-15 -1.5q-8 0 -13.5 5t-5.5 11t11 23z" />
    <glyph glyph-name="egrave" unicode="&#xe8;" horiz-adv-x="426" 
d="M272 340v45q0 31 -11.5 52t-41.5 21t-41.5 -21t-11.5 -52v-45h106zM38 327q0 52 5.5 94t25 71.5t56.5 45.5t99 16q95 0 132.5 -53.5t37.5 -159.5q0 -18 -2 -34t-9 -28t-20.5 -18.5t-36.5 -6.5h-160v-55q0 -24 1.5 -45.5t7 -37t16.5 -24.5t30 -9q20 0 33 17t14 39
q2 40 18 52.5t42 12.5q27 0 44.5 -12t17.5 -48q0 -74 -45.5 -115.5t-120.5 -41.5q-62 0 -99 16t-56.5 45.5t-25 71.5t-5.5 94v113zM131 678q-10 9 -17.5 20.5t-7.5 25.5q0 20 14 31.5t30 11.5q12 0 20 -2.5t19 -13.5l84 -85q15 -15 15 -33q0 -19 -11 -31.5t-31 -12.5
q-11 0 -19.5 4t-16.5 12z" />
    <glyph glyph-name="eacute" unicode="&#xe9;" horiz-adv-x="426" 
d="M272 340v45q0 31 -11.5 52t-41.5 21t-41.5 -21t-11.5 -52v-45h106zM38 327q0 52 5.5 94t25 71.5t56.5 45.5t99 16q95 0 132.5 -53.5t37.5 -159.5q0 -18 -2 -34t-9 -28t-20.5 -18.5t-36.5 -6.5h-160v-55q0 -24 1.5 -45.5t7 -37t16.5 -24.5t30 -9q20 0 33 17t14 39
q2 40 18 52.5t42 12.5q27 0 44.5 -12t17.5 -48q0 -74 -45.5 -115.5t-120.5 -41.5q-62 0 -99 16t-56.5 45.5t-25 71.5t-5.5 94v113zM249 751q11 11 19 13.5t20 2.5q16 0 30 -11.5t14 -31.5q0 -14 -7.5 -25.5t-17.5 -20.5l-79 -73q-8 -8 -16.5 -12t-19.5 -4q-20 0 -31 12.5
t-11 31.5q0 18 15 33z" />
    <glyph glyph-name="ecircumflex" unicode="&#xea;" horiz-adv-x="426" 
d="M272 340v45q0 31 -11.5 52t-41.5 21t-41.5 -21t-11.5 -52v-45h106zM38 327q0 52 5.5 94t25 71.5t56.5 45.5t99 16q95 0 132.5 -53.5t37.5 -159.5q0 -18 -2 -34t-9 -28t-20.5 -18.5t-36.5 -6.5h-160v-55q0 -24 1.5 -45.5t7 -37t16.5 -24.5t30 -9q20 0 33 17t14 39
q2 40 18 52.5t42 12.5q27 0 44.5 -12t17.5 -48q0 -74 -45.5 -115.5t-120.5 -41.5q-62 0 -99 16t-56.5 45.5t-25 71.5t-5.5 94v113zM146 726q17 25 33.5 33t39.5 8t39.5 -8t33.5 -33l43 -65q7 -10 9.5 -16.5t2.5 -14.5q0 -18 -12 -29.5t-32 -11.5q-13 0 -21.5 6t-14.5 16
l-48 80l-48 -80q-6 -10 -14.5 -16t-21.5 -6q-20 0 -32 11.5t-12 29.5q0 8 2.5 14.5t9.5 16.5z" />
    <glyph glyph-name="edieresis" unicode="&#xeb;" horiz-adv-x="426" 
d="M272 340v45q0 31 -11.5 52t-41.5 21t-41.5 -21t-11.5 -52v-45h106zM38 327q0 52 5.5 94t25 71.5t56.5 45.5t99 16q95 0 132.5 -53.5t37.5 -159.5q0 -18 -2 -34t-9 -28t-20.5 -18.5t-36.5 -6.5h-160v-55q0 -24 1.5 -45.5t7 -37t16.5 -24.5t30 -9q20 0 33 17t14 39
q2 40 18 52.5t42 12.5q27 0 44.5 -12t17.5 -48q0 -74 -45.5 -115.5t-120.5 -41.5q-62 0 -99 16t-56.5 45.5t-25 71.5t-5.5 94v113zM59 666q0 28 19.5 47.5t47.5 19.5t47.5 -19.5t19.5 -47.5t-19.5 -47.5t-47.5 -19.5t-47.5 19.5t-19.5 47.5zM245 666q0 28 19.5 47.5
t47.5 19.5t47.5 -19.5t19.5 -47.5t-19.5 -47.5t-47.5 -19.5t-47.5 19.5t-19.5 47.5z" />
    <glyph glyph-name="igrave" unicode="&#xec;" 
d="M59 481q0 38 16.5 55.5t44.5 17.5t44.5 -17.5t16.5 -55.5v-421q0 -38 -16.5 -55.5t-44.5 -17.5t-44.5 17.5t-16.5 55.5v421zM32 678q-10 9 -17.5 20.5t-7.5 25.5q0 20 14 31.5t30 11.5q12 0 20 -2.5t19 -13.5l84 -85q15 -15 15 -33q0 -19 -11 -31.5t-31 -12.5
q-11 0 -19.5 4t-16.5 12z" />
    <glyph glyph-name="iacute" unicode="&#xed;" 
d="M59 481q0 38 16.5 55.5t44.5 17.5t44.5 -17.5t16.5 -55.5v-421q0 -38 -16.5 -55.5t-44.5 -17.5t-44.5 17.5t-16.5 55.5v421zM150 751q11 11 19 13.5t20 2.5q16 0 30 -11.5t14 -31.5q0 -14 -7.5 -25.5t-17.5 -20.5l-79 -73q-8 -8 -16.5 -12t-19.5 -4q-20 0 -31 12.5
t-11 31.5q0 18 15 33z" />
    <glyph glyph-name="icircumflex" unicode="&#xee;" 
d="M59 481q0 38 16.5 55.5t44.5 17.5t44.5 -17.5t16.5 -55.5v-421q0 -38 -16.5 -55.5t-44.5 -17.5t-44.5 17.5t-16.5 55.5v421zM47 726q17 25 33.5 33t39.5 8t39.5 -8t33.5 -33l43 -65q7 -10 9.5 -16.5t2.5 -14.5q0 -18 -12 -29.5t-32 -11.5q-13 0 -21.5 6t-14.5 16l-48 80
l-48 -80q-6 -10 -14.5 -16t-21.5 -6q-20 0 -32 11.5t-12 29.5q0 8 2.5 14.5t9.5 16.5z" />
    <glyph glyph-name="idieresis" unicode="&#xef;" 
d="M59 481q0 38 16.5 55.5t44.5 17.5t44.5 -17.5t16.5 -55.5v-421q0 -38 -16.5 -55.5t-44.5 -17.5t-44.5 17.5t-16.5 55.5v421zM-40 666q0 28 19.5 47.5t47.5 19.5t47.5 -19.5t19.5 -47.5t-19.5 -47.5t-47.5 -19.5t-47.5 19.5t-19.5 47.5zM146 666q0 28 19.5 47.5t47.5 19.5
t47.5 -19.5t19.5 -47.5t-19.5 -47.5t-47.5 -19.5t-47.5 19.5t-19.5 47.5z" />
    <glyph glyph-name="eth" unicode="&#xf0;" horiz-adv-x="444" 
d="M166 184q0 -33 2.5 -54.5t9 -34t17.5 -17.5t27 -5t27 5t17.5 17.5t9 34t2.5 54.5v111q0 34 -2.5 55.5t-9 34t-17.5 17t-27 4.5t-27 -4.5t-17.5 -17t-9 -34t-2.5 -55.5v-111zM38 305q0 39 8 73t27.5 59.5t53 40t83.5 14.5q25 0 42.5 -10t28.5 -25l2 2q-5 41 -16.5 73.5
t-29.5 64.5l-47 -25q-9 -5 -19.5 -9.5t-27.5 -4.5q-15 0 -25 8t-10 22q0 17 8 27t26 19l38 19q-12 11 -27 17.5t-28 12.5t-22 13.5t-9 20.5q0 23 14 32t33 9q40 0 71 -15t60 -42l42 22q9 5 19.5 9.5t27.5 4.5q15 0 25 -8t10 -22q0 -17 -8 -27t-26 -19l-37 -20
q39 -52 60 -122t21 -140v-205q0 -39 -8 -73t-29 -59.5t-56.5 -40t-90.5 -14.5t-90.5 14.5t-56.5 40t-29 59.5t-8 73v131z" />
    <glyph glyph-name="ntilde" unicode="&#xf1;" horiz-adv-x="463" 
d="M54 481q0 38 16.5 55.5t44.5 17.5t44.5 -17.5t16.5 -52.5h2q15 35 47 52.5t67 17.5q51 0 84 -32.5t33 -101.5v-360q0 -38 -16.5 -55.5t-44.5 -17.5t-44.5 17.5t-16.5 55.5v331q0 30 -13.5 43.5t-33.5 13.5q-29 0 -46.5 -23t-17.5 -74v-291q0 -38 -16.5 -55.5t-44.5 -17.5
t-44.5 17.5t-16.5 55.5v421zM73 635q0 15 9 30t23 27t31.5 20t34.5 8q19 0 36.5 -4t33 -9t27.5 -9t20 -4q12 0 21 5.5t17.5 12t17 12t19.5 5.5q17 0 28.5 -10t11.5 -26q0 -15 -8 -31t-21.5 -29t-31 -21.5t-36.5 -8.5q-7 0 -25 4t-38 9t-37.5 9t-22.5 4q-10 0 -18 -5.5
t-15.5 -11.5t-15.5 -11.5t-18 -5.5q-18 0 -30.5 10.5t-12.5 29.5z" />
    <glyph glyph-name="ograve" unicode="&#xf2;" horiz-adv-x="444" 
d="M166 207q0 -38 3 -62t10 -37.5t17.5 -19t25.5 -5.5t25.5 5.5t17.5 19t10 37.5t3 62v129q0 37 -3.5 60.5t-11 37t-18 19t-23.5 5.5q-14 0 -24 -5.5t-17.5 -19t-11 -37t-3.5 -60.5v-129zM38 344q0 43 8 81.5t29 67t56.5 45t90.5 16.5t90.5 -16.5t56.5 -45t29 -67t8 -81.5
v-147q0 -44 -8 -82t-29 -66.5t-56.5 -45t-90.5 -16.5t-90.5 16.5t-56.5 45t-29 66.5t-8 82v147zM134 678q-10 9 -17.5 20.5t-7.5 25.5q0 20 14 31.5t30 11.5q12 0 20 -2.5t19 -13.5l84 -85q15 -15 15 -33q0 -19 -11 -31.5t-31 -12.5q-11 0 -19.5 4t-16.5 12z" />
    <glyph glyph-name="oacute" unicode="&#xf3;" horiz-adv-x="444" 
d="M166 207q0 -38 3 -62t10 -37.5t17.5 -19t25.5 -5.5t25.5 5.5t17.5 19t10 37.5t3 62v129q0 37 -3.5 60.5t-11 37t-18 19t-23.5 5.5q-14 0 -24 -5.5t-17.5 -19t-11 -37t-3.5 -60.5v-129zM38 344q0 43 8 81.5t29 67t56.5 45t90.5 16.5t90.5 -16.5t56.5 -45t29 -67t8 -81.5
v-147q0 -44 -8 -82t-29 -66.5t-56.5 -45t-90.5 -16.5t-90.5 16.5t-56.5 45t-29 66.5t-8 82v147zM252 751q11 11 19 13.5t20 2.5q16 0 30 -11.5t14 -31.5q0 -14 -7.5 -25.5t-17.5 -20.5l-79 -73q-8 -8 -16.5 -12t-19.5 -4q-20 0 -31 12.5t-11 31.5q0 18 15 33z" />
    <glyph glyph-name="ocircumflex" unicode="&#xf4;" horiz-adv-x="444" 
d="M166 207q0 -38 3 -62t10 -37.5t17.5 -19t25.5 -5.5t25.5 5.5t17.5 19t10 37.5t3 62v129q0 37 -3.5 60.5t-11 37t-18 19t-23.5 5.5q-14 0 -24 -5.5t-17.5 -19t-11 -37t-3.5 -60.5v-129zM38 344q0 43 8 81.5t29 67t56.5 45t90.5 16.5t90.5 -16.5t56.5 -45t29 -67t8 -81.5
v-147q0 -44 -8 -82t-29 -66.5t-56.5 -45t-90.5 -16.5t-90.5 16.5t-56.5 45t-29 66.5t-8 82v147zM149 726q17 25 33.5 33t39.5 8t39.5 -8t33.5 -33l43 -65q7 -10 9.5 -16.5t2.5 -14.5q0 -18 -12 -29.5t-32 -11.5q-13 0 -21.5 6t-14.5 16l-48 80l-48 -80q-6 -10 -14.5 -16
t-21.5 -6q-20 0 -32 11.5t-12 29.5q0 8 2.5 14.5t9.5 16.5z" />
    <glyph glyph-name="otilde" unicode="&#xf5;" horiz-adv-x="444" 
d="M166 207q0 -38 3 -62t10 -37.5t17.5 -19t25.5 -5.5t25.5 5.5t17.5 19t10 37.5t3 62v129q0 37 -3.5 60.5t-11 37t-18 19t-23.5 5.5q-14 0 -24 -5.5t-17.5 -19t-11 -37t-3.5 -60.5v-129zM38 344q0 43 8 81.5t29 67t56.5 45t90.5 16.5t90.5 -16.5t56.5 -45t29 -67t8 -81.5
v-147q0 -44 -8 -82t-29 -66.5t-56.5 -45t-90.5 -16.5t-90.5 16.5t-56.5 45t-29 66.5t-8 82v147zM57 635q0 15 9 30t23 27t31.5 20t34.5 8q19 0 36.5 -4t33 -9t27.5 -9t20 -4q12 0 21 5.5t17.5 12t17 12t19.5 5.5q17 0 28.5 -10t11.5 -26q0 -15 -8 -31t-21.5 -29t-31 -21.5
t-36.5 -8.5q-7 0 -25 4t-38 9t-37.5 9t-22.5 4q-10 0 -18 -5.5t-15.5 -11.5t-15.5 -11.5t-18 -5.5q-18 0 -30.5 10.5t-12.5 29.5z" />
    <glyph glyph-name="odieresis" unicode="&#xf6;" horiz-adv-x="444" 
d="M166 207q0 -38 3 -62t10 -37.5t17.5 -19t25.5 -5.5t25.5 5.5t17.5 19t10 37.5t3 62v129q0 37 -3.5 60.5t-11 37t-18 19t-23.5 5.5q-14 0 -24 -5.5t-17.5 -19t-11 -37t-3.5 -60.5v-129zM38 344q0 43 8 81.5t29 67t56.5 45t90.5 16.5t90.5 -16.5t56.5 -45t29 -67t8 -81.5
v-147q0 -44 -8 -82t-29 -66.5t-56.5 -45t-90.5 -16.5t-90.5 16.5t-56.5 45t-29 66.5t-8 82v147zM62 666q0 28 19.5 47.5t47.5 19.5t47.5 -19.5t19.5 -47.5t-19.5 -47.5t-47.5 -19.5t-47.5 19.5t-19.5 47.5zM248 666q0 28 19.5 47.5t47.5 19.5t47.5 -19.5t19.5 -47.5
t-19.5 -47.5t-47.5 -19.5t-47.5 19.5t-19.5 47.5z" />
    <glyph glyph-name="divide" unicode="&#xf7;" horiz-adv-x="600" 
d="M513 336q32 0 51 -15.5t19 -37.5t-19 -37.5t-51 -15.5h-426q-32 0 -51 15.5t-19 37.5t19 37.5t51 15.5h426zM224 495q0 32 22 54t54 22t54 -22t22 -54t-22 -54t-54 -22t-54 22t-22 54zM224 71q0 32 22 54t54 22t54 -22t22 -54t-22 -54t-54 -22t-54 22t-22 54z" />
    <glyph glyph-name="oslash" unicode="&#xf8;" horiz-adv-x="444" 
d="M274 399q-6 35 -19 47t-33 12q-14 0 -24 -5.5t-17.5 -19t-11 -37t-3.5 -60.5v-114h2zM68 61q-17 27 -23.5 62t-6.5 74v147q0 43 8 81.5t29 67t56.5 45t90.5 16.5q42 0 72 -9.5t52 -27.5l18 30q11 18 28 18q5 0 11.5 -5t6.5 -13q0 -10 -10 -27l-24 -40q17 -27 23.5 -62
t6.5 -74v-147q0 -44 -8 -82t-29 -66.5t-56.5 -45t-90.5 -16.5q-42 0 -73 10t-51 28l-18 -30q-13 -20 -25 -20q-8 0 -14.5 5.5t-6.5 13.5q0 6 2 11.5t8 15.5zM170 142q5 -35 17.5 -47t34.5 -12q15 0 25.5 5.5t17.5 19t10 37.5t3 62v113h-2z" />
    <glyph glyph-name="ugrave" unicode="&#xf9;" horiz-adv-x="463" 
d="M54 481q0 38 16.5 55.5t44.5 17.5t44.5 -17.5t16.5 -55.5v-331q0 -30 12 -43.5t35 -13.5q32 0 48 23t16 74v291q0 38 16.5 55.5t44.5 17.5t44.5 -17.5t16.5 -55.5v-421q0 -38 -16.5 -55.5t-44.5 -17.5t-44.5 17.5t-16.5 52.5h-2q-15 -35 -47 -52.5t-67 -17.5
q-51 0 -84 32.5t-33 101.5v360zM150 678q-10 9 -17.5 20.5t-7.5 25.5q0 20 14 31.5t30 11.5q12 0 20 -2.5t19 -13.5l84 -85q15 -15 15 -33q0 -19 -11 -31.5t-31 -12.5q-11 0 -19.5 4t-16.5 12z" />
    <glyph glyph-name="uacute" unicode="&#xfa;" horiz-adv-x="463" 
d="M54 481q0 38 16.5 55.5t44.5 17.5t44.5 -17.5t16.5 -55.5v-331q0 -30 12 -43.5t35 -13.5q32 0 48 23t16 74v291q0 38 16.5 55.5t44.5 17.5t44.5 -17.5t16.5 -55.5v-421q0 -38 -16.5 -55.5t-44.5 -17.5t-44.5 17.5t-16.5 52.5h-2q-15 -35 -47 -52.5t-67 -17.5
q-51 0 -84 32.5t-33 101.5v360zM268 751q11 11 19 13.5t20 2.5q16 0 30 -11.5t14 -31.5q0 -14 -7.5 -25.5t-17.5 -20.5l-79 -73q-8 -8 -16.5 -12t-19.5 -4q-20 0 -31 12.5t-11 31.5q0 18 15 33z" />
    <glyph glyph-name="ucircumflex" unicode="&#xfb;" horiz-adv-x="463" 
d="M54 481q0 38 16.5 55.5t44.5 17.5t44.5 -17.5t16.5 -55.5v-331q0 -30 12 -43.5t35 -13.5q32 0 48 23t16 74v291q0 38 16.5 55.5t44.5 17.5t44.5 -17.5t16.5 -55.5v-421q0 -38 -16.5 -55.5t-44.5 -17.5t-44.5 17.5t-16.5 52.5h-2q-15 -35 -47 -52.5t-67 -17.5
q-51 0 -84 32.5t-33 101.5v360zM165 726q17 25 33.5 33t39.5 8t39.5 -8t33.5 -33l43 -65q7 -10 9.5 -16.5t2.5 -14.5q0 -18 -12 -29.5t-32 -11.5q-13 0 -21.5 6t-14.5 16l-48 80l-48 -80q-6 -10 -14.5 -16t-21.5 -6q-20 0 -32 11.5t-12 29.5q0 8 2.5 14.5t9.5 16.5z" />
    <glyph glyph-name="udieresis" unicode="&#xfc;" horiz-adv-x="463" 
d="M54 481q0 38 16.5 55.5t44.5 17.5t44.5 -17.5t16.5 -55.5v-331q0 -30 12 -43.5t35 -13.5q32 0 48 23t16 74v291q0 38 16.5 55.5t44.5 17.5t44.5 -17.5t16.5 -55.5v-421q0 -38 -16.5 -55.5t-44.5 -17.5t-44.5 17.5t-16.5 52.5h-2q-15 -35 -47 -52.5t-67 -17.5
q-51 0 -84 32.5t-33 101.5v360zM78 666q0 28 19.5 47.5t47.5 19.5t47.5 -19.5t19.5 -47.5t-19.5 -47.5t-47.5 -19.5t-47.5 19.5t-19.5 47.5zM264 666q0 28 19.5 47.5t47.5 19.5t47.5 -19.5t19.5 -47.5t-19.5 -47.5t-47.5 -19.5t-47.5 19.5t-19.5 47.5z" />
    <glyph glyph-name="yacute" unicode="&#xfd;" horiz-adv-x="426" 
d="M24 465q-2 8 -3.5 17t-1.5 15q0 26 17.5 41.5t47.5 15.5q23 0 40.5 -10.5t22.5 -36.5l71 -377h2l60 357q5 30 19 48.5t47 18.5q26 0 43.5 -14t17.5 -40q0 -11 -7 -39l-127 -535q-9 -40 -20 -65.5t-27.5 -40.5t-41.5 -21t-64 -6q-17 0 -28 4.5t-17.5 12t-9 17t-2.5 19.5
q0 19 9.5 31t38.5 15q16 1 27.5 6t11.5 28q0 15 -4 30zM243 751q11 11 19 13.5t20 2.5q16 0 30 -11.5t14 -31.5q0 -14 -7.5 -25.5t-17.5 -20.5l-79 -73q-8 -8 -16.5 -12t-19.5 -4q-20 0 -31 12.5t-11 31.5q0 18 15 33z" />
    <glyph glyph-name="thorn" unicode="&#xfe;" horiz-adv-x="463" 
d="M181 215q0 -58 12.5 -95t48.5 -37q34 0 42.5 37t8.5 105v76q0 45 -2.5 74t-8.5 46.5t-16 24.5t-25 7q-11 0 -21.5 -5t-19 -19.5t-14 -40t-5.5 -66.5v-107zM59 660q0 38 16.5 55.5t44.5 17.5t44.5 -17.5t16.5 -55.5v-179h2q16 35 46 54t62 19q41 0 66.5 -17.5t39.5 -46.5
t19 -67t5 -80v-145q0 -42 -5 -80t-19 -67t-39.5 -46.5t-66.5 -17.5q-35 0 -63 15t-45 46l-2 2v-184q0 -38 -16.5 -55.5t-44.5 -17.5t-44.5 17.5t-16.5 55.5v794z" />
    <glyph glyph-name="ydieresis" unicode="&#xff;" horiz-adv-x="426" 
d="M24 465q-2 8 -3.5 17t-1.5 15q0 26 17.5 41.5t47.5 15.5q23 0 40.5 -10.5t22.5 -36.5l71 -377h2l60 357q5 30 19 48.5t47 18.5q26 0 43.5 -14t17.5 -40q0 -11 -7 -39l-127 -535q-9 -40 -20 -65.5t-27.5 -40.5t-41.5 -21t-64 -6q-17 0 -28 4.5t-17.5 12t-9 17t-2.5 19.5
q0 19 9.5 31t38.5 15q16 1 27.5 6t11.5 28q0 15 -4 30zM53 666q0 28 19.5 47.5t47.5 19.5t47.5 -19.5t19.5 -47.5t-19.5 -47.5t-47.5 -19.5t-47.5 19.5t-19.5 47.5zM239 666q0 28 19.5 47.5t47.5 19.5t47.5 -19.5t19.5 -47.5t-19.5 -47.5t-47.5 -19.5t-47.5 19.5t-19.5 47.5
z" />
    <glyph glyph-name="Gbreve" unicode="&#x11e;" horiz-adv-x="521" 
d="M475 42q0 -26 -11.5 -40.5t-40.5 -14.5q-27 0 -40 17t-13 42v19h-2q-44 -78 -134 -78q-59 0 -96.5 25t-58.5 70.5t-29 109.5t-8 141v73q0 91 12.5 154.5t40.5 102.5t71 56.5t105 17.5q54 0 92.5 -15.5t63 -40.5t36.5 -56.5t12 -62.5q0 -37 -15.5 -58.5t-51.5 -21.5
q-35 0 -49 19.5t-18 66.5q-2 23 -19 43t-57 20q-18 0 -33 -7t-26.5 -28t-17.5 -59.5t-6 -100.5v-100q0 -66 3.5 -112t13 -75t27 -42.5t45.5 -13.5q44 0 60 40t16 106v41h-55q-29 0 -41.5 17t-12.5 40q0 30 15.5 43.5t42.5 13.5h112q36 0 51.5 -16t15.5 -50v-286zM137 889
q0 17 10 28t27 11q23 0 37 -29q12 -26 24.5 -36t36.5 -10t36.5 10t24.5 36q14 29 37 29q17 0 27 -11t10 -28q0 -12 -7.5 -32t-24 -38.5t-42 -32.5t-61.5 -14t-61.5 14t-42 32.5t-24 38.5t-7.5 32z" />
    <glyph glyph-name="gbreve" unicode="&#x11f;" horiz-adv-x="462" 
d="M170 248q0 -45 2.5 -74t8.5 -46.5t16 -24.5t25 -7q11 0 21.5 5t19 19.5t14 40t5.5 66.5v95q0 41 -6 66.5t-14.5 40t-18.5 19.5t-19 5q-26 0 -40 -26.5t-14 -92.5v-86zM42 351q0 39 6 75.5t20.5 65t39.5 45.5t64 17q35 0 66.5 -19t45.5 -54h2q0 38 15.5 55.5t44.5 17.5
q26 0 42 -17.5t16 -55.5v-511q0 -93 -45.5 -135t-137.5 -42q-34 0 -63.5 6t-51 18t-33.5 31t-12 46q0 26 17.5 40t43.5 14q21 0 34.5 -11t19.5 -25q8 -18 19.5 -25.5t22.5 -7.5q40 0 52 26t12 81v75h-2q-11 -19 -21.5 -31t-23.5 -18.5t-28.5 -9t-34.5 -2.5q-41 0 -66.5 17.5
t-39.5 46.5t-19 67t-5 80v140zM95 709q0 17 10 28t27 11q23 0 37 -29q12 -26 24.5 -36t36.5 -10t36.5 10t24.5 36q14 29 37 29q17 0 27 -11t10 -28q0 -12 -7.5 -32t-24 -38.5t-42 -32.5t-61.5 -14t-61.5 14t-42 32.5t-24 38.5t-7.5 32z" />
    <glyph glyph-name="Idotaccent" unicode="&#x130;" horiz-adv-x="236" 
d="M62 664q0 38 16 55.5t41 17.5t41 -17.5t16 -55.5v-608q0 -38 -16 -55.5t-41 -17.5t-41 17.5t-16 55.5v608zM48 845q0 28 19.5 47.5t47.5 19.5t47.5 -19.5t19.5 -47.5t-19.5 -47.5t-47.5 -19.5t-47.5 19.5t-19.5 47.5z" />
    <glyph glyph-name="dotlessi" unicode="&#x131;" 
d="M59 481q0 38 16.5 55.5t44.5 17.5t44.5 -17.5t16.5 -55.5v-421q0 -38 -16.5 -55.5t-44.5 -17.5t-44.5 17.5t-16.5 55.5v421z" />
    <glyph glyph-name="Lslash" unicode="&#x141;" horiz-adv-x="481" 
d="M56 232q-14 -9 -31 -9q-20 0 -33.5 12t-13.5 35q0 11 5.5 24.5t25.5 27.5l47 34v308q0 32 20 50.5t47 18.5t47 -18.5t20 -50.5v-210l70 51q21 16 44 16q20 0 33.5 -12t13.5 -35q0 -11 -5.5 -24.5t-25.5 -27.5l-130 -95v-207h201q38 0 54 -17t16 -43t-16 -43t-54 -17h-263
q-37 0 -54.5 17t-17.5 55v160z" />
    <glyph glyph-name="lslash" unicode="&#x142;" 
d="M59 264q-15 -10 -32 -10q-21 0 -33.5 13t-12.5 30q0 11 6 23.5t20 26.5l52 42v271q0 38 16.5 55.5t44.5 17.5t44.5 -17.5t16.5 -55.5v-175q13 10 32 10q21 0 33.5 -13t12.5 -30q0 -11 -6 -23.5t-20 -26.5l-52 -41v-301q0 -38 -16.5 -55.5t-44.5 -17.5t-44.5 17.5
t-16.5 55.5v204z" />
    <glyph glyph-name="OE" unicode="&#x152;" horiz-adv-x="796" 
d="M40 442q0 99 18.5 157.5t49.5 89t70.5 39.5t81.5 9q35 0 66.5 -9t51.5 -30v-2h2q4 11 17 17.5t29 6.5h266q38 0 54 -17t16 -43t-16 -43t-54 -17h-218v-166h203q38 0 54 -17t16 -43t-16 -43t-54 -17h-203v-194h218q38 0 54 -17t16 -43t-16 -43t-54 -17h-243q-35 0 -50.5 6
t-20.5 15q-19 -20 -50 -29t-68 -9q-47 0 -87 10t-69.5 42t-46.5 92.5t-17 162.5v152zM180 290q0 -66 5 -105.5t15 -61t25 -28t35 -6.5t35 6.5t25 28t15 61t5 105.5v152q0 58 -5 95t-15 58t-25 28.5t-35 7.5t-35 -7.5t-25 -28.5t-15 -58t-5 -95v-152z" />
    <glyph glyph-name="oe" unicode="&#x153;" horiz-adv-x="667" 
d="M174 226q0 -33 1.5 -59t7.5 -45t17 -29t30 -10q37 0 46 34.5t9 96.5v113q0 31 -1.5 55t-7 41t-16.5 26t-30 9t-30 -10t-17 -29t-7.5 -45t-1.5 -59v-89zM513 340v45q0 31 -11.5 52t-41.5 21t-41.5 -21t-11.5 -52v-45h106zM46 347q0 96 41 151.5t137 55.5q33 0 67 -11
t60 -31v1q25 20 54 30.5t60 10.5q95 0 132.5 -53.5t37.5 -159.5q0 -18 -2 -34t-9 -28t-20.5 -18.5t-36.5 -6.5h-160v-55q0 -24 1.5 -45.5t7 -37t16.5 -24.5t30 -9q20 0 33 17t14 39q2 40 18 52.5t42 12.5q27 0 44.5 -12t17.5 -48q0 -74 -45.5 -115.5t-120.5 -41.5
q-42 0 -74.5 11.5t-54.5 31.5q-20 -23 -52.5 -33t-62.5 -10q-51 0 -84.5 15.5t-53.5 44.5t-28.5 71t-8.5 95v134z" />
    <glyph glyph-name="Scedilla" unicode="&#x15e;" horiz-adv-x="497" 
d="M213 -11l-3 -5q-58 5 -92.5 30.5t-53 56.5t-24 60.5t-5.5 42.5q0 18 2.5 34.5t10 29t21 20t34.5 7.5q32 0 47.5 -19.5t18.5 -67.5q2 -37 20.5 -63t59.5 -26q40 0 59 24.5t19 59.5q0 18 -3.5 32.5t-12 26.5t-21.5 23.5t-31 24.5l-129 91q-53 37 -72 80t-19 98q0 48 17 83
t46 58.5t67.5 35t81.5 11.5q56 0 94 -18t61.5 -45t33.5 -58.5t10 -59.5q0 -34 -18.5 -51t-47.5 -17q-20 0 -32.5 4.5t-19.5 14t-10.5 24t-5.5 33.5q-5 38 -24 52.5t-48 14.5q-31 0 -51 -18.5t-20 -50.5q0 -12 2 -24.5t9.5 -25t21.5 -27t39 -30.5l99 -65q27 -18 49 -37.5
t37 -43.5t23 -54.5t8 -69.5q0 -88 -49 -140.5t-150 -60.5l3 4zM233 -17q8 0 15 0.5t14 0.5l-26 -40h13q38 0 62.5 -16t24.5 -54q0 -42 -34.5 -66t-83.5 -24q-32 0 -55 10.5t-23 27.5q0 11 6 18t14 7q14 0 27 -5.5t24 -5.5q17 0 30.5 8.5t13.5 27.5q0 14 -10 23t-24 9
q-8 0 -16 -1.5t-15 -1.5q-8 0 -13.5 5t-5.5 11t11 23l28 44q5 0 11 -0.5t12 -0.5z" />
    <glyph glyph-name="scedilla" unicode="&#x15f;" horiz-adv-x="401" 
d="M180 -6l-4 -6q-42 4 -69.5 19t-44 36.5t-23 46t-6.5 46.5q0 35 18 48t40 13q34 0 47.5 -18.5t16.5 -56.5q2 -17 13 -30.5t40 -13.5q48 0 48 50q0 20 -9 34t-34 34l-93 69q-26 19 -42 36t-25 33.5t-12 34.5t-3 39q0 73 46.5 109.5t120.5 36.5q49 0 80.5 -14.5t50 -35.5
t26 -44t7.5 -39q0 -27 -13.5 -43.5t-50.5 -16.5q-47 0 -50 47q-2 28 -16 41.5t-37 13.5q-19 0 -30.5 -11t-11.5 -31q0 -14 6 -27.5t21 -24.5l75 -57q28 -21 50 -39.5t36.5 -37.5t22 -40.5t7.5 -48.5q0 -72 -42 -111t-107 -46l3 4zM201 -13q7 0 14 0.5t14 1.5l-26 -40h13
q38 0 62.5 -16t24.5 -54q0 -42 -34.5 -66t-83.5 -24q-32 0 -55 10.5t-23 27.5q0 11 6 18t14 7q14 0 27 -5.5t24 -5.5q17 0 30.5 8.5t13.5 27.5q0 14 -10 23t-24 9q-8 0 -16 -1.5t-15 -1.5q-8 0 -13.5 5t-5.5 11t11 23l27 43q6 0 12 -0.5t13 -0.5z" />
    <glyph glyph-name="Scaron" unicode="&#x160;" horiz-adv-x="500" 
d="M132 371q-53 37 -72 80t-19 98q0 48 17 83t46 58.5t67.5 35t81.5 11.5q56 0 94 -18t61.5 -45t33.5 -58.5t10 -59.5q0 -34 -18.5 -51t-47.5 -17q-20 0 -32.5 4.5t-19.5 14t-10.5 24t-5.5 33.5q-5 38 -24 52.5t-48 14.5q-31 0 -51 -18.5t-20 -50.5q0 -12 2 -24.5t9.5 -25
t21.5 -27t39 -30.5l99 -65q27 -18 49 -37.5t37 -43.5t23 -54.5t8 -69.5q0 -94 -56 -148t-172 -54q-44 0 -76 11.5t-54 30t-35 41t-20.5 43.5t-10 38.5t-2.5 26.5q0 18 2.5 34.5t10 29t21 20t34.5 7.5q32 0 47.5 -19.5t18.5 -67.5q2 -37 20.5 -63t59.5 -26q40 0 59 24.5
t19 59.5q0 18 -3.5 32.5t-12 26.5t-21.5 23.5t-31 24.5zM134 874q-7 10 -9.5 16.5t-2.5 14.5q0 18 12 29.5t32 11.5q13 0 21.5 -6t14.5 -16l48 -80l48 80q6 10 14.5 16t21.5 6q20 0 32 -11.5t12 -29.5q0 -8 -2.5 -14.5t-9.5 -16.5l-43 -65q-17 -25 -33.5 -33t-39.5 -8
t-39.5 8t-33.5 33z" />
    <glyph glyph-name="scaron" unicode="&#x161;" horiz-adv-x="407" 
d="M118 265q-26 19 -42 36t-25 33.5t-12 34.5t-3 39q0 73 46.5 109.5t120.5 36.5q49 0 80.5 -14.5t50 -35.5t26 -44t7.5 -39q0 -27 -13.5 -43.5t-50.5 -16.5q-47 0 -50 47q-2 28 -16 41.5t-37 13.5q-19 0 -30.5 -11t-11.5 -31q0 -14 6 -27.5t21 -24.5l75 -57
q28 -21 50 -39.5t36.5 -37.5t22 -40.5t7.5 -48.5q0 -40 -13.5 -69.5t-37.5 -49.5t-56.5 -30t-69.5 -10q-49 0 -81.5 14.5t-51.5 36.5t-27 48t-8 50q0 35 18 48t40 13q34 0 47.5 -18.5t16.5 -56.5q2 -17 13 -30.5t40 -13.5q48 0 48 50q0 20 -9 34t-34 34zM88 695
q-7 10 -9.5 16.5t-2.5 14.5q0 18 12 29.5t32 11.5q13 0 21.5 -6t14.5 -16l48 -80l48 80q6 10 14.5 16t21.5 6q20 0 32 -11.5t12 -29.5q0 -8 -2.5 -14.5t-9.5 -16.5l-43 -65q-17 -25 -33.5 -33t-39.5 -8t-39.5 8t-33.5 33z" />
    <glyph glyph-name="Ydieresis" unicode="&#x178;" horiz-adv-x="481" 
d="M174 296l-146 329q-7 16 -9.5 27.5t-2.5 19.5q0 32 20 46.5t46 14.5q31 0 45 -13t28 -50l86 -228l91 238q13 34 29.5 43.5t39.5 9.5q29 0 46.5 -17t17.5 -37q0 -19 -10 -41l-147 -335v-247q0 -32 -20 -50.5t-47 -18.5t-47 18.5t-20 50.5v240zM81 845q0 28 19.5 47.5
t47.5 19.5t47.5 -19.5t19.5 -47.5t-19.5 -47.5t-47.5 -19.5t-47.5 19.5t-19.5 47.5zM267 845q0 28 19.5 47.5t47.5 19.5t47.5 -19.5t19.5 -47.5t-19.5 -47.5t-47.5 -19.5t-47.5 19.5t-19.5 47.5z" />
    <glyph glyph-name="Zcaron" unicode="&#x17d;" horiz-adv-x="519" 
d="M110 600q-38 0 -54 17t-16 43t16 43t54 17h308q34 0 52.5 -14.5t18.5 -44.5t-25 -71l-273 -470h235q38 0 54 -17t16 -43t-16 -43t-54 -17h-333q-35 0 -52.5 20.5t-17.5 42.5q0 14 4 26t18 35l272 476h-207zM144 874q-7 10 -9.5 16.5t-2.5 14.5q0 18 12 29.5t32 11.5
q13 0 21.5 -6t14.5 -16l48 -80l48 80q6 10 14.5 16t21.5 6q20 0 32 -11.5t12 -29.5q0 -8 -2.5 -14.5t-9.5 -16.5l-43 -65q-17 -25 -33.5 -33t-39.5 -8t-39.5 8t-33.5 33z" />
    <glyph glyph-name="zcaron" unicode="&#x17e;" horiz-adv-x="426" 
d="M334 541q63 0 63 -42q0 -16 -4.5 -28t-17.5 -35l-193 -330h157q61 0 61 -52q0 -54 -61 -54h-254q-32 0 -45.5 13t-13.5 38q0 17 5 29.5t12 24.5l193 330h-147q-61 0 -61 52q0 54 61 54h245zM97 695q-7 10 -9.5 16.5t-2.5 14.5q0 18 12 29.5t32 11.5q13 0 21.5 -6
t14.5 -16l48 -80l48 80q6 10 14.5 16t21.5 6q20 0 32 -11.5t12 -29.5q0 -8 -2.5 -14.5t-9.5 -16.5l-43 -65q-17 -25 -33.5 -33t-39.5 -8t-39.5 8t-33.5 33z" />
    <glyph glyph-name="florin" unicode="&#x192;" horiz-adv-x="480" 
d="M97 300q-26 0 -36.5 14.5t-10.5 28.5t10.5 28.5t36.5 14.5h72l22 194q8 69 41 104.5t106 35.5q38 0 56 -16.5t18 -42.5q0 -52 -47 -55q-27 -2 -36 -15t-13 -42l-19 -163h68q26 0 36.5 -14.5t10.5 -28.5t-10.5 -28.5t-36.5 -14.5h-76l-30 -288q-3 -33 -12.5 -62.5
t-26.5 -51.5t-43 -34.5t-63 -12.5q-45 0 -64.5 18t-19.5 42q0 23 11.5 37.5t48.5 16.5q22 1 31.5 20.5t14.5 67.5l25 247h-64z" />
    <glyph glyph-name="circumflex" unicode="&#x2c6;" 
d="M47 726q17 25 33.5 33t39.5 8t39.5 -8t33.5 -33l43 -65q7 -10 9.5 -16.5t2.5 -14.5q0 -18 -12 -29.5t-32 -11.5q-13 0 -21.5 6t-14.5 16l-48 80l-48 -80q-6 -10 -14.5 -16t-21.5 -6q-20 0 -32 11.5t-12 29.5q0 8 2.5 14.5t9.5 16.5z" />
    <glyph glyph-name="caron" unicode="&#x2c7;" 
d="M4 695q-7 10 -9.5 16.5t-2.5 14.5q0 18 12 29.5t32 11.5q13 0 21.5 -6t14.5 -16l48 -80l48 80q6 10 14.5 16t21.5 6q20 0 32 -11.5t12 -29.5q0 -8 -2.5 -14.5t-9.5 -16.5l-43 -65q-17 -25 -33.5 -33t-39.5 -8t-39.5 8t-33.5 33z" />
    <glyph glyph-name="uni02C9" unicode="&#x2c9;" 
d="M239 707q49 0 49 -43t-49 -43h-238q-49 0 -49 43t49 43h238z" />
    <glyph glyph-name="breve" unicode="&#x2d8;" 
d="M-15 728q0 17 10 28t27 11q23 0 37 -29q12 -26 24.5 -36t36.5 -10t36.5 10t24.5 36q14 29 37 29q17 0 27 -11t10 -28q0 -12 -7.5 -32t-24 -38.5t-42 -32.5t-61.5 -14t-61.5 14t-42 32.5t-24 38.5t-7.5 32z" />
    <glyph glyph-name="dotaccent" unicode="&#x2d9;" 
d="M53 666q0 28 19.5 47.5t47.5 19.5t47.5 -19.5t19.5 -47.5t-19.5 -47.5t-47.5 -19.5t-47.5 19.5t-19.5 47.5z" />
    <glyph glyph-name="ring" unicode="&#x2da;" 
d="M14 695q0 45 30.5 75.5t75.5 30.5t75.5 -30.5t30.5 -75.5t-30.5 -75.5t-75.5 -30.5t-75.5 30.5t-30.5 75.5zM72 695q0 -20 14 -34t34 -14t34 14t14 34t-14 34t-34 14t-34 -14t-14 -34z" />
    <glyph glyph-name="ogonek" unicode="&#x2db;" 
d="M195 0q-35 -26 -49 -56t-14 -54q0 -46 37 -46q14 0 25 5.5t19 5.5q10 0 16 -8.5t6 -19.5q0 -16 -18.5 -29.5t-65.5 -13.5q-51 0 -75.5 23.5t-24.5 65.5q0 41 27 75.5t67 51.5h50z" />
    <glyph glyph-name="tilde" unicode="&#x2dc;" 
d="M-45 635q0 15 9 30t23 27t31.5 20t34.5 8q19 0 36.5 -4t33 -9t27.5 -9t20 -4q12 0 21 5.5t17.5 12t17 12t19.5 5.5q17 0 28.5 -10t11.5 -26q0 -15 -8 -31t-21.5 -29t-31 -21.5t-36.5 -8.5q-7 0 -25 4t-38 9t-37.5 9t-22.5 4q-10 0 -18 -5.5t-15.5 -11.5t-15.5 -11.5
t-18 -5.5q-18 0 -30.5 10.5t-12.5 29.5z" />
    <glyph glyph-name="hungarumlaut" unicode="&#x2dd;" 
d="M52 751q11 11 19 13.5t20 2.5q16 0 30 -11.5t14 -31.5q0 -14 -7.5 -25.5t-17.5 -20.5l-79 -73q-8 -8 -16.5 -12t-19.5 -4q-20 0 -31 12.5t-11 31.5q0 18 15 33zM248 751q11 11 19 13.5t20 2.5q16 0 30 -11.5t14 -31.5q0 -14 -7.5 -25.5t-17.5 -20.5l-79 -73
q-8 -8 -16.5 -12t-19.5 -4q-20 0 -31 12.5t-11 31.5q0 18 15 33z" />
    <glyph glyph-name="uni03A9" unicode="&#x3a9;" horiz-adv-x="601" 
d="M147 100q-20 24 -38.5 54.5t-33 67t-23 79.5t-8.5 91q0 67 18.5 126.5t52.5 103.5t82 69.5t106 25.5q63 0 110 -28.5t78.5 -74.5t47 -102.5t15.5 -111.5q0 -49 -9 -93.5t-24 -83t-34 -70t-38 -53.5v-3h117v-97h-223v70q18 15 35.5 41.5t31 64.5t22 87t8.5 110
q0 47 -8.5 91t-26 77.5t-43.5 54t-61 20.5q-33 0 -59.5 -18.5t-45 -51.5t-28.5 -78.5t-10 -99.5q0 -56 8 -104t21.5 -86t31 -65.5t35.5 -42.5v-70h-223v97h116v3z" />
    <glyph glyph-name="uni03BC" unicode="&#x3bc;" horiz-adv-x="463" 
d="M54 481q0 38 16.5 55.5t44.5 17.5t44.5 -17.5t16.5 -55.5v-331q0 -30 12 -43.5t35 -13.5q32 0 48 23t16 74v291q0 38 16.5 55.5t44.5 17.5t44.5 -17.5t16.5 -55.5v-421q0 -38 -16.5 -55.5t-44.5 -17.5t-44.5 17.5t-16.5 52.5h-2q-5 -12 -14.5 -24.5t-21.5 -22.5
q-13 -11 -27 -17t-28 -6q-5 0 -9.5 2t-6.5 7h-2v-130q0 -38 -16.5 -55.5t-44.5 -17.5t-44.5 17.5t-16.5 55.5v615z" />
    <glyph glyph-name="pi" unicode="&#x3c0;" horiz-adv-x="526" 
d="M443 429v-289q0 -53 3.5 -85t8.5 -55h-108q-15 33 -15 138v291h-120q-2 -40 -6.5 -96t-12 -115.5t-17.5 -117t-22 -100.5h-107q12 46 21.5 103t17 115.5t11.5 113.5t5 97q-32 0 -51 -2.5t-32 -6.5l-13 79q17 14 52.5 23t90.5 9h364l-8 -102h-62z" />
    <glyph glyph-name="endash" unicode="&#x2013;" horiz-adv-x="500" 
d="M72 226q-32 0 -47 17t-15 40t15 40t47 17h356q32 0 47 -17t15 -40t-15 -40t-47 -17h-356z" />
    <glyph glyph-name="emdash" unicode="&#x2014;" horiz-adv-x="1000" 
d="M72 226q-32 0 -47 17t-15 40t15 40t47 17h856q32 0 47 -17t15 -40t-15 -40t-47 -17h-856z" />
    <glyph glyph-name="quoteleft" unicode="&#x2018;" horiz-adv-x="222" 
d="M31 552q0 40 13 73.5t32.5 57.5t43 37t44.5 13q12 0 19.5 -8t7.5 -17q0 -11 -5.5 -17t-20.5 -11q-9 -3 -20 -10t-21 -16.5t-18 -21.5t-11 -25q7 1 11.5 1h9.5q21 0 35 -7.5t23 -18.5t13 -24t4 -23q0 -32 -22.5 -55.5t-57.5 -23.5q-21 0 -36 9t-24.5 22.5t-14.5 30.5
t-5 34z" />
    <glyph glyph-name="quoteright" unicode="&#x2019;" horiz-adv-x="222" 
d="M31 654q0 32 22.5 55.5t57.5 23.5q21 0 36 -9t24.5 -22.5t14.5 -31t5 -33.5q0 -40 -13 -73.5t-32.5 -57.5t-43 -37t-44.5 -13q-12 0 -19.5 8t-7.5 17q0 11 5.5 17t20.5 11q9 3 20 10t21 16.5t18 21.5t11 25q-7 -1 -11.5 -1h-9.5q-21 0 -35 7.5t-23 18.5t-13 23.5t-4 23.5
z" />
    <glyph glyph-name="quotesinglbase" unicode="&#x201a;" horiz-adv-x="222" 
d="M31 60q0 32 22.5 55.5t57.5 23.5q21 0 36 -9t24.5 -22.5t14.5 -31t5 -33.5q0 -40 -13 -73.5t-32.5 -57.5t-43 -37t-44.5 -13q-12 0 -19.5 8t-7.5 17q0 11 5.5 17t20.5 11q9 3 20 10t21 16.5t18 21.5t11 25q-7 -1 -11.5 -1h-9.5q-21 0 -35 7.5t-23 18.5t-13 23.5t-4 23.5z
" />
    <glyph glyph-name="quotedblleft" unicode="&#x201c;" horiz-adv-x="426" 
d="M230 552q0 40 13 73.5t32.5 57.5t43 37t44.5 13q12 0 19.5 -8t7.5 -17q0 -11 -5.5 -17t-20.5 -11q-9 -3 -20 -10t-21 -16.5t-18 -21.5t-11 -25q7 1 11.5 1h9.5q21 0 35 -7.5t23 -18.5t13 -24t4 -23q0 -32 -22.5 -55.5t-57.5 -23.5q-21 0 -36 9t-24.5 22.5t-14.5 30.5
t-5 34zM36 552q0 40 13 73.5t32.5 57.5t43 37t44.5 13q12 0 19.5 -8t7.5 -17q0 -11 -5.5 -17t-20.5 -11q-9 -3 -20 -10t-21 -16.5t-18 -21.5t-11 -25q7 1 11.5 1h9.5q21 0 35 -7.5t23 -18.5t13 -24t4 -23q0 -32 -22.5 -55.5t-57.5 -23.5q-21 0 -36 9t-24.5 22.5t-14.5 30.5
t-5 34z" />
    <glyph glyph-name="quotedblright" unicode="&#x201d;" horiz-adv-x="426" 
d="M36 654q0 32 22.5 55.5t57.5 23.5q21 0 36 -9t24.5 -22.5t14.5 -31t5 -33.5q0 -40 -13 -73.5t-32.5 -57.5t-43 -37t-44.5 -13q-12 0 -19.5 8t-7.5 17q0 11 5.5 17t20.5 11q9 3 20 10t21 16.5t18 21.5t11 25q-7 -1 -11.5 -1h-9.5q-21 0 -35 7.5t-23 18.5t-13 23.5t-4 23.5
zM230 654q0 32 22.5 55.5t57.5 23.5q21 0 36 -9t24.5 -22.5t14.5 -31t5 -33.5q0 -40 -13 -73.5t-32.5 -57.5t-43 -37t-44.5 -13q-12 0 -19.5 8t-7.5 17q0 11 5.5 17t20.5 11q9 3 20 10t21 16.5t18 21.5t11 25q-7 -1 -11.5 -1h-9.5q-21 0 -35 7.5t-23 18.5t-13 23.5t-4 23.5z
" />
    <glyph glyph-name="quotedblbase" unicode="&#x201e;" horiz-adv-x="426" 
d="M36 60q0 32 22.5 55.5t57.5 23.5q21 0 36 -9t24.5 -22.5t14.5 -31t5 -33.5q0 -40 -13 -73.5t-32.5 -57.5t-43 -37t-44.5 -13q-12 0 -19.5 8t-7.5 17q0 11 5.5 17t20.5 11q9 3 20 10t21 16.5t18 21.5t11 25q-7 -1 -11.5 -1h-9.5q-21 0 -35 7.5t-23 18.5t-13 23.5t-4 23.5z
M230 60q0 32 22.5 55.5t57.5 23.5q21 0 36 -9t24.5 -22.5t14.5 -31t5 -33.5q0 -40 -13 -73.5t-32.5 -57.5t-43 -37t-44.5 -13q-12 0 -19.5 8t-7.5 17q0 11 5.5 17t20.5 11q9 3 20 10t21 16.5t18 21.5t11 25q-7 -1 -11.5 -1h-9.5q-21 0 -35 7.5t-23 18.5t-13 23.5t-4 23.5z
" />
    <glyph glyph-name="dagger" unicode="&#x2020;" horiz-adv-x="480" 
d="M77 380q-31 0 -44.5 15t-13.5 38t13.5 38t44.5 15h102v174q0 38 16.5 55.5t44.5 17.5t44.5 -17.5t16.5 -55.5v-174h102q31 0 44.5 -15t13.5 -38t-13.5 -38t-44.5 -15h-102v-494q0 -38 -16.5 -55.5t-44.5 -17.5t-44.5 17.5t-16.5 55.5v494h-102z" />
    <glyph glyph-name="daggerdbl" unicode="&#x2021;" horiz-adv-x="480" 
d="M179 412h-102q-31 0 -44.5 15t-13.5 38t13.5 38t44.5 15h102v142q0 38 16.5 55.5t44.5 17.5t44.5 -17.5t16.5 -55.5v-142h102q31 0 44.5 -15t13.5 -38t-13.5 -38t-44.5 -15h-102v-278h102q31 0 44.5 -15t13.5 -38t-13.5 -38t-44.5 -15h-102v-142q0 -38 -16.5 -55.5
t-44.5 -17.5t-44.5 17.5t-16.5 55.5v142h-102q-31 0 -44.5 15t-13.5 38t13.5 38t44.5 15h102v278z" />
    <glyph glyph-name="bullet" unicode="&#x2022;" horiz-adv-x="500" 
d="M70 360q0 37 14 70t38.5 57.5t57.5 38.5t70 14t70 -14t57.5 -38.5t38.5 -57.5t14 -70t-14 -70t-38.5 -57.5t-57.5 -38.5t-70 -14t-70 14t-57.5 38.5t-38.5 57.5t-14 70z" />
    <glyph glyph-name="ellipsis" unicode="&#x2026;" horiz-adv-x="1000" 
d="M91 63q0 32 22 54t54 22t54 -22t22 -54t-22 -54t-54 -22t-54 22t-22 54zM424 63q0 32 22 54t54 22t54 -22t22 -54t-22 -54t-54 -22t-54 22t-22 54zM757 63q0 32 22 54t54 22t54 -22t22 -54t-22 -54t-54 -22t-54 22t-22 54z" />
    <glyph glyph-name="perthousand" unicode="&#x2030;" horiz-adv-x="1000" 
d="M458 161q0 -51 8 -74.5t40 -23.5t40 23.5t8 74.5t-8 74.5t-40 23.5t-40 -23.5t-8 -74.5zM362 168q0 80 32 123.5t112 43.5t112 -43.5t32 -123.5q0 -39 -4.5 -72t-19.5 -57t-43.5 -38t-76.5 -14t-76.5 14t-43.5 38t-19.5 57t-4.5 72zM792 161q0 -51 8 -74.5t40 -23.5
t40 23.5t8 74.5t-8 74.5t-40 23.5t-40 -23.5t-8 -74.5zM696 168q0 80 32 123.5t112 43.5t112 -43.5t32 -123.5q0 -39 -4.5 -72t-19.5 -57t-43.5 -38t-76.5 -14t-76.5 14t-43.5 38t-19.5 57t-4.5 72zM112 546q0 -51 8 -74.5t40 -23.5t40 23.5t8 74.5t-8 74.5t-40 23.5
t-40 -23.5t-8 -74.5zM16 553q0 80 32 123.5t112 43.5t112 -43.5t32 -123.5q0 -39 -4.5 -72t-19.5 -57t-43.5 -38t-76.5 -14t-76.5 14t-43.5 38t-19.5 57t-4.5 72zM163 -10q-11 -17 -21 -22.5t-22 -5.5q-17 0 -27 10t-10 21q0 13 10 30l413 694q11 17 21 22.5t22 5.5
q17 0 27 -10t10 -21q0 -13 -10 -30z" />
    <glyph glyph-name="guilsinglleft" unicode="&#x2039;" horiz-adv-x="259" 
d="M194 219q12 -11 19.5 -19.5t7.5 -18.5q0 -22 -13.5 -33t-30.5 -11t-31 14l-72 65q-22 20 -29 34.5t-7 32.5t7 32.5t29 34.5l72 65q14 14 31 14t30.5 -11t13.5 -33q0 -10 -7.5 -18.5t-19.5 -19.5l-73 -64z" />
    <glyph glyph-name="guilsinglright" unicode="&#x203a;" horiz-adv-x="259" 
d="M65 347q-12 11 -19.5 19.5t-7.5 18.5q0 22 13.5 33t30.5 11t31 -14l72 -65q22 -20 29 -34.5t7 -32.5t-7 -32.5t-29 -34.5l-72 -65q-14 -14 -31 -14t-30.5 11t-13.5 33q0 10 7.5 18.5t19.5 19.5l73 64z" />
    <glyph glyph-name="fraction" unicode="&#x2044;" horiz-adv-x="167" 
d="M199 719q5 11 15.5 18.5t27.5 7.5q18 0 26.5 -10t8.5 -21q0 -16 -6 -29l-303 -697q-5 -11 -15.5 -18.5t-27.5 -7.5q-18 0 -26.5 10t-8.5 21q0 15 6 29z" />
    <glyph glyph-name="Euro" unicode="&#x20ac;" horiz-adv-x="480" 
d="M486 634q0 -23 -14 -39.5t-37 -16.5q-16 0 -28 5.5t-25 12.5t-29 12.5t-38 5.5q-23 0 -41.5 -12.5t-32 -33.5t-22.5 -48t-15 -56h133q22 0 39 -5.5t17 -32.5t-16.5 -34t-39.5 -7h-143v-56h116q22 0 39 -5.5t17 -32.5t-16.5 -34t-39.5 -7h-108q5 -31 13.5 -59.5t22.5 -50
t33 -34.5t45 -13q20 0 36.5 6.5t31 14.5t28 14.5t28.5 6.5q21 0 32.5 -14.5t11.5 -37.5q0 -31 -20 -49.5t-48.5 -29t-59.5 -14t-54 -3.5q-52 0 -92.5 19.5t-69.5 54.5t-47.5 83.5t-26.5 105.5q-21 0 -38 6.5t-17 32.5q0 25 15 32t34 8v17v19.5t1 19.5q-20 0 -35.5 6.5
t-15.5 32.5q0 14 5.5 22t14 12t19 5t21.5 1q10 54 29.5 101t49 81t69 53.5t89.5 19.5q27 0 58.5 -2.5t58 -11.5t44.5 -26t18 -45z" />
    <glyph glyph-name="afii61289" unicode="&#x2113;" horiz-adv-x="446" 
d="M432 122q-33 -72 -79 -101.5t-98 -29.5q-43 0 -73 14t-49 38t-28.5 55t-10.5 65v13q-11 -10 -23.5 -20.5t-23.5 -20.5l-27 62q20 20 38 36t35 34v264q0 64 13 110.5t34.5 76.5t50 44.5t60.5 14.5q31 0 53.5 -13t37 -36.5t21.5 -55.5t7 -70q0 -88 -45.5 -174t-122.5 -172
v-52q0 -63 22 -92t56 -29q17 0 32.5 7.5t29 19.5t25 27.5t20.5 31.5zM202 366q45 60 74 123.5t29 119.5q0 40 -11 61t-37 21q-10 0 -20 -8t-17.5 -27.5t-12.5 -52.5t-5 -83v-154z" />
    <glyph glyph-name="trademark" unicode="&#x2122;" horiz-adv-x="1000" 
d="M142 629h-66q-27 0 -38 15t-11 31q0 15 11 30t38 15h247q27 0 37.5 -15t10.5 -30q0 -16 -10.5 -31t-37.5 -15h-67v-265q0 -20 -7 -32.5t-16 -20t-18.5 -10t-15.5 -2.5t-15.5 2.5t-18.5 10t-16 20t-7 32.5v265zM828 571h-2l-91 -219q-21 -53 -57 -53t-57 53l-91 219h-2
v-207q0 -29 -15.5 -47t-37.5 -18t-37.5 18t-15.5 47v272q0 27 8 44.5t20.5 27.5t27.5 14t28 4q76 0 107 -77l65 -167l65 167q31 77 107 77q13 0 28 -4t27.5 -14t20.5 -27.5t8 -44.5v-272q0 -29 -15.5 -47t-37.5 -18t-37.5 18t-15.5 47v207z" />
    <glyph glyph-name="Omega" unicode="&#x2126;" horiz-adv-x="601" 
d="M147 100q-20 24 -38.5 54.5t-33 67t-23 79.5t-8.5 91q0 67 18.5 126.5t52.5 103.5t82 69.5t106 25.5q63 0 110 -28.5t78.5 -74.5t47 -102.5t15.5 -111.5q0 -49 -9 -93.5t-24 -83t-34 -70t-38 -53.5v-3h117v-97h-223v70q18 15 35.5 41.5t31 64.5t22 87t8.5 110
q0 47 -8.5 91t-26 77.5t-43.5 54t-61 20.5q-33 0 -59.5 -18.5t-45 -51.5t-28.5 -78.5t-10 -99.5q0 -56 8 -104t21.5 -86t31 -65.5t35.5 -42.5v-70h-223v97h116v3z" />
    <glyph glyph-name="estimated" unicode="&#x212e;" horiz-adv-x="884" 
d="M189 343q-5 0 -5 -4v-200q0 -13 9 -22q48 -51 111.5 -80t137.5 -29q79 0 146.5 33t115.5 89h59q-55 -65 -139 -103.5t-183 -38.5q-84 0 -158.5 28.5t-129.5 78t-87 116t-32 142.5t32 143t87 116.5t129.5 78.5t158.5 29t158.5 -29t130 -78.5t87.5 -116.5t32 -143v-10h-660
zM699 570q0 14 -10 24q-48 48 -111.5 76t-135.5 28q-73 0 -136.5 -29t-111.5 -79q-10 -9 -10 -24v-197q0 -2 1.5 -4t3.5 -2h506q2 0 3 2t1 4v201z" />
    <glyph glyph-name="partialdiff" unicode="&#x2202;" horiz-adv-x="506" 
d="M63 743q22 18 60 36.5t98 18.5q46 0 89.5 -22.5t77 -69t53.5 -118.5t20 -171t-16 -178t-47.5 -134t-77 -84t-104.5 -29q-45 0 -78.5 20.5t-56 54t-34 75.5t-11.5 86q0 63 15.5 112.5t42 84t61.5 52.5t73 18q25 0 45.5 -7.5t36 -18t25.5 -22.5t15 -21h1v33
q0 47 -10.5 90.5t-29 77t-45.5 53.5t-60 20q-38 0 -65.5 -15.5t-46.5 -32.5zM228 92q25 0 44.5 20.5t34 53.5t23.5 74t12 82q-3 12 -11 25.5t-20 25t-28 19t-35 7.5q-23 0 -41.5 -14.5t-31.5 -39t-20.5 -56.5t-7.5 -66q0 -57 21 -94t59 -37h1z" />
    <glyph glyph-name="Delta" unicode="&#x2206;" horiz-adv-x="570" 
d="M25 70l198 651h132l189 -648v-73h-519v70zM429 95l-93 297q-5 21 -12 46.5t-14 50.5t-13.5 48t-10.5 40h-2q-3 -15 -8.5 -35.5t-12.5 -43t-14 -46.5t-12 -46l-99 -311h291z" />
    <glyph glyph-name="product" unicode="&#x220f;" horiz-adv-x="636" 
d="M524 599v-697h-112v697h-189v-697h-112v697h-86v108h585v-108h-86z" />
    <glyph glyph-name="summation" unicode="&#x2211;" horiz-adv-x="488" 
d="M23 -98v79l213 326l-207 316v84h427v-99h-280v-3l185 -276l-207 -312v-4h316v-111h-447z" />
    <glyph glyph-name="minus" unicode="&#x2212;" horiz-adv-x="600" 
d="M513 336q32 0 51 -15.5t19 -37.5t-19 -37.5t-51 -15.5h-426q-32 0 -51 15.5t-19 37.5t19 37.5t51 15.5h426z" />
    <glyph glyph-name="uni2215" unicode="&#x2215;" horiz-adv-x="167" 
d="M199 719q5 11 15.5 18.5t27.5 7.5q18 0 26.5 -10t8.5 -21q0 -16 -6 -29l-303 -697q-5 -11 -15.5 -18.5t-27.5 -7.5q-18 0 -26.5 10t-8.5 21q0 15 6 29z" />
    <glyph glyph-name="uni2219" unicode="&#x2219;" 
d="M44 305q0 32 22 54t54 22t54 -22t22 -54t-22 -54t-54 -22t-54 22t-22 54z" />
    <glyph glyph-name="radical" unicode="&#x221a;" horiz-adv-x="529" 
d="M334 -139h-90l-129 445l-66 -26l-18 68l153 61l87 -311q5 -26 10 -51t7 -42l2 -1q2 17 5 43.5t8 55.5l150 747h77z" />
    <glyph glyph-name="infinity" unicode="&#x221e;" horiz-adv-x="725" 
d="M681 292q0 -38 -12.5 -68.5t-33.5 -51.5t-48 -32t-56 -11q-21 0 -40.5 5t-40 17t-41.5 32.5t-44 51.5q-18 -22 -37 -41.5t-40 -33.5t-45 -22.5t-52 -8.5q-29 0 -55.5 11.5t-47 32.5t-32.5 50t-12 64q0 36 12 65.5t32.5 50.5t49 33t61.5 12q52 0 91.5 -28.5t76.5 -75.5
q15 16 31.5 34.5t36.5 34t45 25.5t56 10t57.5 -11t46 -31.5t30.5 -49t11 -63.5v-1zM201 194q20 0 37 8t33 20.5t30 28.5t28 33q-15 20 -29 38t-29.5 32t-33.5 22.5t-41 8.5q-42 0 -64 -28.5t-22 -70.5q0 -38 26 -65t64 -27h1zM529 385q-21 0 -40 -10t-35 -24.5t-29.5 -31
t-24.5 -29.5q21 -26 37.5 -44.5t32 -30t30.5 -16.5t33 -5q20 0 35 8.5t25.5 22t16 30t5.5 32.5q0 43 -23.5 70.5t-61.5 27.5h-1z" />
    <glyph glyph-name="integral" unicode="&#x222b;" horiz-adv-x="370" 
d="M330 779q-13 8 -30 8q-28 0 -45 -25q-14 -20 -19 -63t-5 -109q0 -62 2 -120.5t4 -118t4 -121.5t2 -130q0 -74 -8.5 -123.5t-24.5 -80.5q-18 -38 -51 -53.5t-67 -15.5q-22 0 -40 5t-27 10l14 86q7 -2 16 -5.5t22 -3.5q11 0 21 4.5t17 15.5q11 17 17 53.5t6 105.5t-2 132
t-4 124t-4 121.5t-2 125.5q0 88 12.5 140t41.5 86q19 23 48 34.5t59 11.5q17 0 32 -3.5t23 -7.5z" />
    <glyph glyph-name="approxequal" unicode="&#x2248;" horiz-adv-x="490" 
d="M454 409q-19 -42 -50 -71t-71 -29q-26 0 -47.5 8.5t-51.5 28.5q-21 14 -38.5 23.5t-38.5 9.5q-30 0 -47.5 -21.5t-33.5 -47.5l-41 35q19 43 52.5 71t75.5 28q34 0 56.5 -13t39.5 -22q23 -14 40 -24t36 -10q26 0 43.5 19.5t34.5 49.5zM454 235q-19 -42 -49.5 -71
t-71.5 -29q-26 0 -47.5 9t-51.5 29q-21 14 -38.5 23.5t-38.5 9.5q-15 0 -26.5 -6t-21 -16t-17.5 -22.5t-16 -25.5l-41 35q19 43 52.5 71t75.5 28q34 0 56.5 -12.5t39.5 -21.5q22 -14 39 -24.5t37 -10.5q26 0 43.5 19.5t34.5 49.5z" />
    <glyph glyph-name="notequal" unicode="&#x2260;" horiz-adv-x="490" 
d="M325 419h121v-69h-144l-54 -127h198v-68h-222l-43 -104l-53 20l36 84h-120v68h144l53 127h-197v69h221l43 102l52 -20z" />
    <glyph glyph-name="lessequal" unicode="&#x2264;" horiz-adv-x="490" 
d="M49 315v73l394 214v-81l-330 -168v-2l330 -168v-82zM45 -4v69h402v-69h-402z" />
    <glyph glyph-name="greaterequal" unicode="&#x2265;" horiz-adv-x="490" 
d="M445 388v-73l-394 -214v82l329 168v2l-329 168v81zM46 -4v69h401v-69h-401z" />
    <glyph glyph-name="lozenge" unicode="&#x25ca;" horiz-adv-x="528" 
d="M307 -45h-93l-167 398l174 399h93l168 -399zM284 586q-5 16 -9.5 34t-7.5 32h-3q-3 -15 -7.5 -32t-10.5 -34l-99 -230l98 -240q5 -17 9.5 -34.5t6.5 -28.5h4q1 6 3 14.5l4 17t4.5 16.5t4.5 12l100 237z" />
    <glyph glyph-name="fi" unicode="&#xfb01;" horiz-adv-x="500" 
d="M319 481q0 38 16.5 55.5t44.5 17.5t44.5 -17.5t16.5 -55.5v-421q0 -38 -16.5 -55.5t-44.5 -17.5t-44.5 17.5t-16.5 55.5v421zM310 667q0 29 20.5 49.5t49.5 20.5t49.5 -20.5t20.5 -49.5t-20.5 -49.5t-49.5 -20.5t-49.5 20.5t-20.5 49.5zM67 450h-13q-27 0 -40.5 10
t-13.5 35q0 26 13.5 36t40.5 10h13v72q0 69 32.5 94.5t101.5 25.5q30 0 45.5 -12.5t15.5 -41.5q0 -18 -9 -29.5t-28 -12.5q-23 -1 -29.5 -11.5t-6.5 -34.5v-50h19q27 0 40.5 -10t13.5 -36q0 -25 -13.5 -35t-40.5 -10h-19v-390q0 -38 -16.5 -55.5t-44.5 -17.5t-44.5 17.5
t-16.5 55.5v390z" />
    <glyph glyph-name="fl" unicode="&#xfb02;" horiz-adv-x="500" 
d="M319 660q0 38 16.5 55.5t44.5 17.5t44.5 -17.5t16.5 -55.5v-600q0 -38 -16.5 -55.5t-44.5 -17.5t-44.5 17.5t-16.5 55.5v600zM67 450h-13q-27 0 -40.5 10t-13.5 35q0 26 13.5 36t40.5 10h13v72q0 69 32.5 94.5t101.5 25.5q30 0 45.5 -12.5t15.5 -41.5q0 -18 -9 -29.5
t-28 -12.5q-23 -1 -29.5 -11.5t-6.5 -34.5v-50h19q27 0 40.5 -10t13.5 -36q0 -25 -13.5 -35t-40.5 -10h-19v-390q0 -38 -16.5 -55.5t-44.5 -17.5t-44.5 17.5t-16.5 55.5v390z" />
    </font>
</defs>
</svg>
